{"glyphs":{"0":{"ha":844,"x_min":28,"x_max":826,"o":"m 115 579 q 122 560 115 565 q 131 549 131 554 q 97 535 131 535 l 65 535 q 31 549 31 535 q 40 560 31 554 q 46 579 46 565 l 46 733 q 44 747 46 743 q 36 756 42 751 q 28 767 28 764 q 36 778 28 774 q 55 784 44 782 q 76 787 65 786 q 90 788 86 788 q 118 767 118 788 q 117 752 118 760 q 115 736 115 744 l 115 631 q 118 625 115 625 q 122 628 119 625 q 142 671 150 649 q 147 692 138 683 q 178 700 157 700 q 215 678 215 700 q 174 632 215 656 q 175 625 168 628 q 201 597 192 615 l 208 583 q 224 561 218 565 q 231 549 231 554 q 222 538 231 542 q 201 535 214 535 l 174 535 q 153 540 158 535 q 143 557 147 544 q 126 592 138 571 l 118 608 l 115 608 l 115 579 m 281 804 q 243 772 264 788 q 303 764 274 746 q 314 774 308 767 q 321 790 319 781 q 325 799 321 794 q 338 790 332 801 q 335 747 346 768 q 301 710 325 725 q 235 697 268 689 q 183 738 203 706 q 172 803 164 769 q 214 857 179 836 q 260 871 238 872 q 293 850 282 869 q 297 829 300 839 q 281 804 294 819 m 233 788 q 242 825 254 804 q 218 835 229 842 q 224 797 206 826 q 227 792 225 794 q 231 786 229 789 l 233 788 m 421 606 q 431 586 422 589 q 443 576 443 581 q 411 558 444 565 l 379 553 q 343 558 346 547 q 349 572 343 567 q 351 593 353 576 l 339 661 q 335 674 338 669 q 325 682 332 678 q 314 690 314 685 q 320 703 313 697 q 338 712 328 708 q 359 718 349 715 q 374 721 369 721 q 395 720 389 724 q 404 706 401 717 q 406 686 406 700 q 407 683 406 683 q 408 686 408 682 q 416 713 411 697 q 443 733 421 729 q 479 704 472 740 q 444 663 488 669 q 431 659 438 660 q 419 656 425 658 q 413 643 410 653 l 421 606 m 589 608 q 542 619 569 610 q 569 568 538 582 q 584 565 575 565 q 600 568 593 564 q 611 569 607 574 q 611 556 618 567 q 576 531 600 536 q 525 536 553 525 q 476 581 489 550 q 476 647 463 611 q 522 697 492 683 q 589 694 553 710 q 628 665 617 683 q 632 626 640 647 q 618 610 628 615 q 589 608 608 606 m 547 638 q 581 653 572 629 q 575 679 590 674 q 549 651 561 683 q 547 644 547 649 q 544 638 546 640 l 547 638 m 746 644 q 738 679 754 675 q 725 676 731 682 q 713 663 719 669 q 699 650 707 656 q 679 647 692 644 q 663 661 668 651 q 660 682 657 671 q 744 697 671 717 q 814 626 826 674 l 794 557 q 796 536 790 543 q 800 524 801 526 q 787 515 799 517 q 757 519 775 514 q 733 530 740 524 q 722 543 725 536 q 721 549 722 547 q 717 546 717 549 q 693 540 706 542 q 667 542 681 538 q 633 596 622 553 q 735 636 647 647 q 744 642 740 635 l 746 644 m 735 607 q 732 615 736 613 l 729 615 q 706 594 713 615 q 713 572 701 574 q 729 586 725 568 l 735 607 m 129 367 q 135 354 131 360 q 149 350 140 349 q 160 358 157 353 q 168 363 164 363 q 175 353 172 364 q 163 320 178 335 q 121 303 147 306 q 80 310 96 300 q 61 342 64 321 l 51 426 q 42 435 51 432 q 31 446 31 435 q 47 463 29 461 q 71 486 63 465 q 79 501 75 496 q 93 508 83 507 q 115 490 111 513 l 115 479 q 125 472 115 472 l 131 472 q 151 461 150 475 q 135 444 154 446 l 128 443 q 121 435 121 443 l 129 367 m 351 471 q 338 397 351 435 q 301 325 325 360 q 258 278 282 296 q 211 261 235 261 q 184 269 194 261 q 174 293 174 278 q 183 319 174 308 q 207 329 192 329 q 227 325 218 329 q 249 321 236 321 q 269 332 269 321 q 257 339 269 338 l 256 339 q 215 374 225 343 l 190 453 q 178 478 183 474 q 175 494 169 486 q 206 503 181 503 l 232 503 q 260 479 264 503 q 258 472 258 478 q 264 446 258 458 l 278 407 q 287 386 285 392 q 293 381 289 381 q 303 404 303 381 q 297 448 303 431 q 290 478 290 465 q 324 506 290 506 q 351 471 351 506 m 563 396 q 524 343 551 360 q 465 336 497 326 q 440 351 449 340 q 438 353 439 353 q 433 349 435 354 l 424 317 q 424 296 421 303 q 428 282 429 288 q 393 279 425 268 l 363 289 q 332 311 328 300 q 344 319 333 315 q 356 338 351 324 l 399 478 q 397 501 403 493 q 394 514 393 511 q 411 524 396 524 q 434 522 421 524 q 458 515 447 519 q 479 499 479 510 q 485 494 479 492 q 525 496 501 503 q 563 460 553 488 q 563 396 574 432 m 463 360 q 490 393 479 356 q 498 447 500 424 q 485 474 496 471 q 467 460 471 478 l 450 404 q 449 378 447 393 q 463 360 450 364 m 700 432 q 679 422 690 426 q 654 414 668 418 q 708 388 674 379 q 724 393 715 390 q 735 404 732 396 q 742 413 738 411 q 750 400 750 415 q 735 360 751 376 q 690 336 718 343 q 624 345 653 328 q 586 399 594 363 q 595 465 576 436 q 654 501 614 493 q 703 500 682 508 q 728 472 724 492 q 700 432 733 450 m 650 432 q 671 464 678 439 q 650 482 667 485 q 643 443 635 478 q 649 431 646 435 l 650 432 m 776 482 q 802 474 792 482 q 813 451 813 465 q 802 428 813 436 q 776 421 792 421 q 742 451 742 421 q 776 482 742 482 m 161 163 q 158 153 161 156 q 153 144 157 149 l 144 140 q 139 140 142 140 q 133 139 136 139 q 126 140 129 139 q 124 141 125 140 q 121 142 122 142 q 117 143 119 143 q 115 144 115 144 q 115 146 115 146 q 114 147 114 146 l 114 150 l 114 154 l 114 156 q 115 157 115 156 l 115 157 q 118 156 117 157 q 121 154 121 154 q 124 153 122 154 q 126 153 125 153 q 133 151 128 151 l 139 151 q 142 154 142 154 q 144 156 144 154 l 144 160 q 144 165 144 165 q 140 167 143 167 l 136 171 q 131 172 132 171 q 125 176 128 174 q 119 179 122 176 q 117 182 118 182 q 115 185 117 182 l 115 193 q 117 201 115 200 q 121 208 118 206 q 129 211 124 211 q 134 213 132 213 q 139 214 136 214 q 144 213 142 214 q 149 211 147 213 l 153 211 q 154 210 154 211 q 156 210 154 210 l 156 208 l 156 207 l 156 206 l 156 203 l 156 200 l 156 199 l 156 197 l 154 197 q 153 199 153 197 q 150 200 150 200 q 144 201 146 200 l 139 201 l 135 201 q 133 201 133 201 q 132 200 133 200 q 131 197 131 199 q 129 194 129 196 q 130 192 129 193 q 131 190 131 192 q 133 188 133 188 q 139 185 139 185 q 144 182 144 182 q 150 179 147 182 q 156 175 153 178 q 158 172 157 174 q 160 169 158 171 q 160 166 160 167 q 161 163 161 165 m 271 154 q 269 151 271 153 l 269 150 l 269 149 l 268 149 l 250 153 l 236 97 l 236 96 l 235 96 l 232 96 q 229 97 229 96 l 225 97 l 224 97 q 222 99 224 99 l 222 100 l 236 157 l 218 160 l 218 161 l 218 163 l 218 165 l 218 167 l 218 169 q 219 171 219 171 q 221 172 219 172 l 222 172 l 269 160 l 271 160 l 272 160 l 272 157 q 271 154 271 154 m 388 163 q 383 151 385 154 q 376 143 382 149 q 367 140 371 140 q 354 140 361 139 q 342 143 347 140 q 338 146 339 144 q 333 150 336 147 q 329 160 331 156 l 329 171 l 336 214 q 338 215 336 215 l 338 217 l 340 217 q 343 215 343 217 l 347 215 q 349 214 349 214 q 350 213 350 214 l 350 211 l 343 171 l 343 163 q 344 160 343 160 q 346 157 344 160 q 350 154 349 154 q 356 151 353 151 l 363 151 q 365 153 364 153 q 367 154 365 153 q 371 158 371 154 q 372 161 371 160 q 372 165 372 163 l 379 207 q 381 208 379 208 q 382 210 381 210 l 383 210 q 388 208 386 210 l 390 208 q 392 208 392 208 q 393 207 392 207 q 394 206 394 207 l 394 206 l 388 163 m 517 182 q 518 165 518 176 q 514 153 518 160 q 504 143 513 149 q 498 140 501 142 q 489 138 494 139 l 474 133 q 469 133 472 132 q 468 136 468 133 l 450 197 q 451 200 450 200 q 454 203 451 200 l 472 207 q 488 210 483 210 q 494 208 492 208 q 501 206 497 207 q 506 202 504 204 q 510 197 507 200 q 517 182 513 194 m 501 178 q 500 183 500 181 q 499 188 500 185 q 496 192 496 190 q 493 194 496 193 q 489 196 490 196 q 485 197 488 196 q 474 196 479 197 l 467 194 l 479 147 l 486 149 q 496 153 494 151 q 501 160 499 154 q 503 168 503 161 q 502 173 503 171 q 501 178 501 175 m 611 185 l 611 183 l 610 182 l 608 182 l 607 182 q 604 181 606 182 q 601 179 603 179 l 599 179 l 599 179 l 599 181 l 575 244 l 575 244 q 576 246 575 246 q 578 247 578 247 q 581 249 581 249 q 583 250 583 250 l 585 250 l 586 250 l 589 250 l 589 250 l 611 185 m 736 194 q 735 186 736 190 q 735 179 735 182 q 729 167 732 169 q 717 160 726 163 q 710 157 714 158 q 703 156 707 156 q 689 158 697 156 q 683 161 685 161 q 678 164 681 161 q 671 175 674 169 q 668 192 668 183 q 671 207 668 203 q 673 213 672 210 q 676 219 674 217 q 688 228 683 226 q 701 229 690 229 q 717 228 707 231 q 726 222 721 228 q 733 211 732 218 q 735 203 735 207 q 736 194 736 200 m 721 194 q 719 204 721 200 q 717 211 717 210 q 711 217 714 217 q 701 218 708 218 q 693 217 694 218 l 688 211 l 683 203 l 683 193 q 685 182 683 185 q 686 178 686 179 q 689 174 686 176 q 694 169 692 171 q 703 168 696 168 q 708 169 706 168 q 711 171 710 171 q 717 176 715 172 q 718 179 717 178 q 721 183 719 181 l 721 194 z "},"1":{"ha":844,"x_min":28,"x_max":826,"o":"m 115 579 q 122 560 115 565 q 131 549 131 554 q 97 535 131 535 l 65 535 q 31 549 31 535 q 40 560 31 554 q 46 579 46 565 l 46 733 q 44 747 46 743 q 36 756 42 751 q 28 767 28 764 q 36 778 28 774 q 55 784 44 782 q 76 787 65 786 q 90 788 86 788 q 118 767 118 788 q 117 752 118 760 q 115 736 115 744 l 115 631 q 118 625 115 625 q 122 628 119 625 q 142 671 150 649 q 147 692 138 683 q 178 700 157 700 q 215 678 215 700 q 174 632 215 656 q 175 625 168 628 q 201 597 192 615 l 208 583 q 224 561 218 565 q 231 549 231 554 q 222 538 231 542 q 201 535 214 535 l 174 535 q 153 540 158 535 q 143 557 147 544 q 126 592 138 571 l 118 608 l 115 608 l 115 579 m 281 804 q 243 772 264 788 q 303 764 274 746 q 314 774 308 767 q 321 790 319 781 q 325 799 321 794 q 338 790 332 801 q 335 747 346 768 q 301 710 325 725 q 235 697 268 689 q 183 738 203 706 q 172 803 164 769 q 214 857 179 836 q 260 871 238 872 q 293 850 282 869 q 297 829 300 839 q 281 804 294 819 m 233 788 q 242 825 254 804 q 218 835 229 842 q 224 797 206 826 q 227 792 225 794 q 231 786 229 789 l 233 788 m 421 606 q 431 586 422 589 q 443 576 443 581 q 411 558 444 565 l 379 553 q 343 558 346 547 q 349 572 343 567 q 351 593 353 576 l 339 661 q 335 674 338 669 q 325 682 332 678 q 314 690 314 685 q 320 703 313 697 q 338 712 328 708 q 359 718 349 715 q 374 721 369 721 q 395 720 389 724 q 404 706 401 717 q 406 686 406 700 q 407 683 406 683 q 408 686 408 682 q 416 713 411 697 q 443 733 421 729 q 479 704 472 740 q 444 663 488 669 q 431 659 438 660 q 419 656 425 658 q 413 643 410 653 l 421 606 m 589 608 q 542 619 569 610 q 569 568 538 582 q 584 565 575 565 q 600 568 593 564 q 611 569 607 574 q 611 556 618 567 q 576 531 600 536 q 525 536 553 525 q 476 581 489 550 q 476 647 463 611 q 522 697 492 683 q 589 694 553 710 q 628 665 617 683 q 632 626 640 647 q 618 610 628 615 q 589 608 608 606 m 547 638 q 581 653 572 629 q 575 679 590 674 q 549 651 561 683 q 547 644 547 649 q 544 638 546 640 l 547 638 m 746 644 q 738 679 754 675 q 725 676 731 682 q 713 663 719 669 q 699 650 707 656 q 679 647 692 644 q 663 661 668 651 q 660 682 657 671 q 744 697 671 717 q 814 626 826 674 l 794 557 q 796 536 790 543 q 800 524 801 526 q 787 515 799 517 q 757 519 775 514 q 733 530 740 524 q 722 543 725 536 q 721 549 722 547 q 717 546 717 549 q 693 540 706 542 q 667 542 681 538 q 633 596 622 553 q 735 636 647 647 q 744 642 740 635 l 746 644 m 735 607 q 732 615 736 613 l 729 615 q 706 594 713 615 q 713 572 701 574 q 729 586 725 568 l 735 607 m 129 367 q 135 354 131 360 q 149 350 140 349 q 160 358 157 353 q 168 363 164 363 q 175 353 172 364 q 163 320 178 335 q 121 303 147 306 q 80 310 96 300 q 61 342 64 321 l 51 426 q 42 435 51 432 q 31 446 31 435 q 47 463 29 461 q 71 486 63 465 q 79 501 75 496 q 93 508 83 507 q 115 490 111 513 l 115 479 q 125 472 115 472 l 131 472 q 151 461 150 475 q 135 444 154 446 l 128 443 q 121 435 121 443 l 129 367 m 351 471 q 338 397 351 435 q 301 325 325 360 q 258 278 282 296 q 211 261 235 261 q 184 269 194 261 q 174 293 174 278 q 183 319 174 308 q 207 329 192 329 q 227 325 218 329 q 249 321 236 321 q 269 332 269 321 q 257 339 269 338 l 256 339 q 215 374 225 343 l 190 453 q 178 478 183 474 q 175 494 169 486 q 206 503 181 503 l 232 503 q 260 479 264 503 q 258 472 258 478 q 264 446 258 458 l 278 407 q 287 386 285 392 q 293 381 289 381 q 303 404 303 381 q 297 448 303 431 q 290 478 290 465 q 324 506 290 506 q 351 471 351 506 m 563 396 q 524 343 551 360 q 465 336 497 326 q 440 351 449 340 q 438 353 439 353 q 433 349 435 354 l 424 317 q 424 296 421 303 q 428 282 429 288 q 393 279 425 268 l 363 289 q 332 311 328 300 q 344 319 333 315 q 356 338 351 324 l 399 478 q 397 501 403 493 q 394 514 393 511 q 411 524 396 524 q 434 522 421 524 q 458 515 447 519 q 479 499 479 510 q 485 494 479 492 q 525 496 501 503 q 563 460 553 488 q 563 396 574 432 m 463 360 q 490 393 479 356 q 498 447 500 424 q 485 474 496 471 q 467 460 471 478 l 450 404 q 449 378 447 393 q 463 360 450 364 m 700 432 q 679 422 690 426 q 654 414 668 418 q 708 388 674 379 q 724 393 715 390 q 735 404 732 396 q 742 413 738 411 q 750 400 750 415 q 735 360 751 376 q 690 336 718 343 q 624 345 653 328 q 586 399 594 363 q 595 465 576 436 q 654 501 614 493 q 703 500 682 508 q 728 472 724 492 q 700 432 733 450 m 650 432 q 671 464 678 439 q 650 482 667 485 q 643 443 635 478 q 649 431 646 435 l 650 432 m 776 482 q 802 474 792 482 q 813 451 813 465 q 802 428 813 436 q 776 421 792 421 q 742 451 742 421 q 776 482 742 482 m 161 163 q 158 153 161 156 q 153 144 157 149 l 144 140 q 139 140 142 140 q 133 139 136 139 q 126 140 129 139 q 124 141 125 140 q 121 142 122 142 q 117 143 119 143 q 115 144 115 144 q 115 146 115 146 q 114 147 114 146 l 114 150 l 114 154 l 114 156 q 115 157 115 156 l 115 157 q 118 156 117 157 q 121 154 121 154 q 124 153 122 154 q 126 153 125 153 q 133 151 128 151 l 139 151 q 142 154 142 154 q 144 156 144 154 l 144 160 q 144 165 144 165 q 140 167 143 167 l 136 171 q 131 172 132 171 q 125 176 128 174 q 119 179 122 176 q 117 182 118 182 q 115 185 117 182 l 115 193 q 117 201 115 200 q 121 208 118 206 q 129 211 124 211 q 134 213 132 213 q 139 214 136 214 q 144 213 142 214 q 149 211 147 213 l 153 211 q 154 210 154 211 q 156 210 154 210 l 156 208 l 156 207 l 156 206 l 156 203 l 156 200 l 156 199 l 156 197 l 154 197 q 153 199 153 197 q 150 200 150 200 q 144 201 146 200 l 139 201 l 135 201 q 133 201 133 201 q 132 200 133 200 q 131 197 131 199 q 129 194 129 196 q 130 192 129 193 q 131 190 131 192 q 133 188 133 188 q 139 185 139 185 q 144 182 144 182 q 150 179 147 182 q 156 175 153 178 q 158 172 157 174 q 160 169 158 171 q 160 166 160 167 q 161 163 161 165 m 271 154 q 269 151 271 153 l 269 150 l 269 149 l 268 149 l 250 153 l 236 97 l 236 96 l 235 96 l 232 96 q 229 97 229 96 l 225 97 l 224 97 q 222 99 224 99 l 222 100 l 236 157 l 218 160 l 218 161 l 218 163 l 218 165 l 218 167 l 218 169 q 219 171 219 171 q 221 172 219 172 l 222 172 l 269 160 l 271 160 l 272 160 l 272 157 q 271 154 271 154 m 388 163 q 383 151 385 154 q 376 143 382 149 q 367 140 371 140 q 354 140 361 139 q 342 143 347 140 q 338 146 339 144 q 333 150 336 147 q 329 160 331 156 l 329 171 l 336 214 q 338 215 336 215 l 338 217 l 340 217 q 343 215 343 217 l 347 215 q 349 214 349 214 q 350 213 350 214 l 350 211 l 343 171 l 343 163 q 344 160 343 160 q 346 157 344 160 q 350 154 349 154 q 356 151 353 151 l 363 151 q 365 153 364 153 q 367 154 365 153 q 371 158 371 154 q 372 161 371 160 q 372 165 372 163 l 379 207 q 381 208 379 208 q 382 210 381 210 l 383 210 q 388 208 386 210 l 390 208 q 392 208 392 208 q 393 207 392 207 q 394 206 394 207 l 394 206 l 388 163 m 517 182 q 518 165 518 176 q 514 153 518 160 q 504 143 513 149 q 498 140 501 142 q 489 138 494 139 l 474 133 q 469 133 472 132 q 468 136 468 133 l 450 197 q 451 200 450 200 q 454 203 451 200 l 472 207 q 488 210 483 210 q 494 208 492 208 q 501 206 497 207 q 506 202 504 204 q 510 197 507 200 q 517 182 513 194 m 501 178 q 500 183 500 181 q 499 188 500 185 q 496 192 496 190 q 493 194 496 193 q 489 196 490 196 q 485 197 488 196 q 474 196 479 197 l 467 194 l 479 147 l 486 149 q 496 153 494 151 q 501 160 499 154 q 503 168 503 161 q 502 173 503 171 q 501 178 501 175 m 611 185 l 611 183 l 610 182 l 608 182 l 607 182 q 604 181 606 182 q 601 179 603 179 l 599 179 l 599 179 l 599 181 l 575 244 l 575 244 q 576 246 575 246 q 578 247 578 247 q 581 249 581 249 q 583 250 583 250 l 585 250 l 586 250 l 589 250 l 589 250 l 611 185 m 736 194 q 735 186 736 190 q 735 179 735 182 q 729 167 732 169 q 717 160 726 163 q 710 157 714 158 q 703 156 707 156 q 689 158 697 156 q 683 161 685 161 q 678 164 681 161 q 671 175 674 169 q 668 192 668 183 q 671 207 668 203 q 673 213 672 210 q 676 219 674 217 q 688 228 683 226 q 701 229 690 229 q 717 228 707 231 q 726 222 721 228 q 733 211 732 218 q 735 203 735 207 q 736 194 736 200 m 721 194 q 719 204 721 200 q 717 211 717 210 q 711 217 714 217 q 701 218 708 218 q 693 217 694 218 l 688 211 l 683 203 l 683 193 q 685 182 683 185 q 686 178 686 179 q 689 174 686 176 q 694 169 692 171 q 703 168 696 168 q 708 169 706 168 q 711 171 710 171 q 717 176 715 172 q 718 179 717 178 q 721 183 719 181 l 721 194 z "},"2":{"ha":844,"x_min":28,"x_max":826,"o":"m 115 579 q 122 560 115 565 q 131 549 131 554 q 97 535 131 535 l 65 535 q 31 549 31 535 q 40 560 31 554 q 46 579 46 565 l 46 733 q 44 747 46 743 q 36 756 42 751 q 28 767 28 764 q 36 778 28 774 q 55 784 44 782 q 76 787 65 786 q 90 788 86 788 q 118 767 118 788 q 117 752 118 760 q 115 736 115 744 l 115 631 q 118 625 115 625 q 122 628 119 625 q 142 671 150 649 q 147 692 138 683 q 178 700 157 700 q 215 678 215 700 q 174 632 215 656 q 175 625 168 628 q 201 597 192 615 l 208 583 q 224 561 218 565 q 231 549 231 554 q 222 538 231 542 q 201 535 214 535 l 174 535 q 153 540 158 535 q 143 557 147 544 q 126 592 138 571 l 118 608 l 115 608 l 115 579 m 281 804 q 243 772 264 788 q 303 764 274 746 q 314 774 308 767 q 321 790 319 781 q 325 799 321 794 q 338 790 332 801 q 335 747 346 768 q 301 710 325 725 q 235 697 268 689 q 183 738 203 706 q 172 803 164 769 q 214 857 179 836 q 260 871 238 872 q 293 850 282 869 q 297 829 300 839 q 281 804 294 819 m 233 788 q 242 825 254 804 q 218 835 229 842 q 224 797 206 826 q 227 792 225 794 q 231 786 229 789 l 233 788 m 421 606 q 431 586 422 589 q 443 576 443 581 q 411 558 444 565 l 379 553 q 343 558 346 547 q 349 572 343 567 q 351 593 353 576 l 339 661 q 335 674 338 669 q 325 682 332 678 q 314 690 314 685 q 320 703 313 697 q 338 712 328 708 q 359 718 349 715 q 374 721 369 721 q 395 720 389 724 q 404 706 401 717 q 406 686 406 700 q 407 683 406 683 q 408 686 408 682 q 416 713 411 697 q 443 733 421 729 q 479 704 472 740 q 444 663 488 669 q 431 659 438 660 q 419 656 425 658 q 413 643 410 653 l 421 606 m 589 608 q 542 619 569 610 q 569 568 538 582 q 584 565 575 565 q 600 568 593 564 q 611 569 607 574 q 611 556 618 567 q 576 531 600 536 q 525 536 553 525 q 476 581 489 550 q 476 647 463 611 q 522 697 492 683 q 589 694 553 710 q 628 665 617 683 q 632 626 640 647 q 618 610 628 615 q 589 608 608 606 m 547 638 q 581 653 572 629 q 575 679 590 674 q 549 651 561 683 q 547 644 547 649 q 544 638 546 640 l 547 638 m 746 644 q 738 679 754 675 q 725 676 731 682 q 713 663 719 669 q 699 650 707 656 q 679 647 692 644 q 663 661 668 651 q 660 682 657 671 q 744 697 671 717 q 814 626 826 674 l 794 557 q 796 536 790 543 q 800 524 801 526 q 787 515 799 517 q 757 519 775 514 q 733 530 740 524 q 722 543 725 536 q 721 549 722 547 q 717 546 717 549 q 693 540 706 542 q 667 542 681 538 q 633 596 622 553 q 735 636 647 647 q 744 642 740 635 l 746 644 m 735 607 q 732 615 736 613 l 729 615 q 706 594 713 615 q 713 572 701 574 q 729 586 725 568 l 735 607 m 129 367 q 135 354 131 360 q 149 350 140 349 q 160 358 157 353 q 168 363 164 363 q 175 353 172 364 q 163 320 178 335 q 121 303 147 306 q 80 310 96 300 q 61 342 64 321 l 51 426 q 42 435 51 432 q 31 446 31 435 q 47 463 29 461 q 71 486 63 465 q 79 501 75 496 q 93 508 83 507 q 115 490 111 513 l 115 479 q 125 472 115 472 l 131 472 q 151 461 150 475 q 135 444 154 446 l 128 443 q 121 435 121 443 l 129 367 m 351 471 q 338 397 351 435 q 301 325 325 360 q 258 278 282 296 q 211 261 235 261 q 184 269 194 261 q 174 293 174 278 q 183 319 174 308 q 207 329 192 329 q 227 325 218 329 q 249 321 236 321 q 269 332 269 321 q 257 339 269 338 l 256 339 q 215 374 225 343 l 190 453 q 178 478 183 474 q 175 494 169 486 q 206 503 181 503 l 232 503 q 260 479 264 503 q 258 472 258 478 q 264 446 258 458 l 278 407 q 287 386 285 392 q 293 381 289 381 q 303 404 303 381 q 297 448 303 431 q 290 478 290 465 q 324 506 290 506 q 351 471 351 506 m 563 396 q 524 343 551 360 q 465 336 497 326 q 440 351 449 340 q 438 353 439 353 q 433 349 435 354 l 424 317 q 424 296 421 303 q 428 282 429 288 q 393 279 425 268 l 363 289 q 332 311 328 300 q 344 319 333 315 q 356 338 351 324 l 399 478 q 397 501 403 493 q 394 514 393 511 q 411 524 396 524 q 434 522 421 524 q 458 515 447 519 q 479 499 479 510 q 485 494 479 492 q 525 496 501 503 q 563 460 553 488 q 563 396 574 432 m 463 360 q 490 393 479 356 q 498 447 500 424 q 485 474 496 471 q 467 460 471 478 l 450 404 q 449 378 447 393 q 463 360 450 364 m 700 432 q 679 422 690 426 q 654 414 668 418 q 708 388 674 379 q 724 393 715 390 q 735 404 732 396 q 742 413 738 411 q 750 400 750 415 q 735 360 751 376 q 690 336 718 343 q 624 345 653 328 q 586 399 594 363 q 595 465 576 436 q 654 501 614 493 q 703 500 682 508 q 728 472 724 492 q 700 432 733 450 m 650 432 q 671 464 678 439 q 650 482 667 485 q 643 443 635 478 q 649 431 646 435 l 650 432 m 776 482 q 802 474 792 482 q 813 451 813 465 q 802 428 813 436 q 776 421 792 421 q 742 451 742 421 q 776 482 742 482 m 161 163 q 158 153 161 156 q 153 144 157 149 l 144 140 q 139 140 142 140 q 133 139 136 139 q 126 140 129 139 q 124 141 125 140 q 121 142 122 142 q 117 143 119 143 q 115 144 115 144 q 115 146 115 146 q 114 147 114 146 l 114 150 l 114 154 l 114 156 q 115 157 115 156 l 115 157 q 118 156 117 157 q 121 154 121 154 q 124 153 122 154 q 126 153 125 153 q 133 151 128 151 l 139 151 q 142 154 142 154 q 144 156 144 154 l 144 160 q 144 165 144 165 q 140 167 143 167 l 136 171 q 131 172 132 171 q 125 176 128 174 q 119 179 122 176 q 117 182 118 182 q 115 185 117 182 l 115 193 q 117 201 115 200 q 121 208 118 206 q 129 211 124 211 q 134 213 132 213 q 139 214 136 214 q 144 213 142 214 q 149 211 147 213 l 153 211 q 154 210 154 211 q 156 210 154 210 l 156 208 l 156 207 l 156 206 l 156 203 l 156 200 l 156 199 l 156 197 l 154 197 q 153 199 153 197 q 150 200 150 200 q 144 201 146 200 l 139 201 l 135 201 q 133 201 133 201 q 132 200 133 200 q 131 197 131 199 q 129 194 129 196 q 130 192 129 193 q 131 190 131 192 q 133 188 133 188 q 139 185 139 185 q 144 182 144 182 q 150 179 147 182 q 156 175 153 178 q 158 172 157 174 q 160 169 158 171 q 160 166 160 167 q 161 163 161 165 m 271 154 q 269 151 271 153 l 269 150 l 269 149 l 268 149 l 250 153 l 236 97 l 236 96 l 235 96 l 232 96 q 229 97 229 96 l 225 97 l 224 97 q 222 99 224 99 l 222 100 l 236 157 l 218 160 l 218 161 l 218 163 l 218 165 l 218 167 l 218 169 q 219 171 219 171 q 221 172 219 172 l 222 172 l 269 160 l 271 160 l 272 160 l 272 157 q 271 154 271 154 m 388 163 q 383 151 385 154 q 376 143 382 149 q 367 140 371 140 q 354 140 361 139 q 342 143 347 140 q 338 146 339 144 q 333 150 336 147 q 329 160 331 156 l 329 171 l 336 214 q 338 215 336 215 l 338 217 l 340 217 q 343 215 343 217 l 347 215 q 349 214 349 214 q 350 213 350 214 l 350 211 l 343 171 l 343 163 q 344 160 343 160 q 346 157 344 160 q 350 154 349 154 q 356 151 353 151 l 363 151 q 365 153 364 153 q 367 154 365 153 q 371 158 371 154 q 372 161 371 160 q 372 165 372 163 l 379 207 q 381 208 379 208 q 382 210 381 210 l 383 210 q 388 208 386 210 l 390 208 q 392 208 392 208 q 393 207 392 207 q 394 206 394 207 l 394 206 l 388 163 m 517 182 q 518 165 518 176 q 514 153 518 160 q 504 143 513 149 q 498 140 501 142 q 489 138 494 139 l 474 133 q 469 133 472 132 q 468 136 468 133 l 450 197 q 451 200 450 200 q 454 203 451 200 l 472 207 q 488 210 483 210 q 494 208 492 208 q 501 206 497 207 q 506 202 504 204 q 510 197 507 200 q 517 182 513 194 m 501 178 q 500 183 500 181 q 499 188 500 185 q 496 192 496 190 q 493 194 496 193 q 489 196 490 196 q 485 197 488 196 q 474 196 479 197 l 467 194 l 479 147 l 486 149 q 496 153 494 151 q 501 160 499 154 q 503 168 503 161 q 502 173 503 171 q 501 178 501 175 m 611 185 l 611 183 l 610 182 l 608 182 l 607 182 q 604 181 606 182 q 601 179 603 179 l 599 179 l 599 179 l 599 181 l 575 244 l 575 244 q 576 246 575 246 q 578 247 578 247 q 581 249 581 249 q 583 250 583 250 l 585 250 l 586 250 l 589 250 l 589 250 l 611 185 m 736 194 q 735 186 736 190 q 735 179 735 182 q 729 167 732 169 q 717 160 726 163 q 710 157 714 158 q 703 156 707 156 q 689 158 697 156 q 683 161 685 161 q 678 164 681 161 q 671 175 674 169 q 668 192 668 183 q 671 207 668 203 q 673 213 672 210 q 676 219 674 217 q 688 228 683 226 q 701 229 690 229 q 717 228 707 231 q 726 222 721 228 q 733 211 732 218 q 735 203 735 207 q 736 194 736 200 m 721 194 q 719 204 721 200 q 717 211 717 210 q 711 217 714 217 q 701 218 708 218 q 693 217 694 218 l 688 211 l 683 203 l 683 193 q 685 182 683 185 q 686 178 686 179 q 689 174 686 176 q 694 169 692 171 q 703 168 696 168 q 708 169 706 168 q 711 171 710 171 q 717 176 715 172 q 718 179 717 178 q 721 183 719 181 l 721 194 z "},"3":{"ha":844,"x_min":28,"x_max":826,"o":"m 115 579 q 122 560 115 565 q 131 549 131 554 q 97 535 131 535 l 65 535 q 31 549 31 535 q 40 560 31 554 q 46 579 46 565 l 46 733 q 44 747 46 743 q 36 756 42 751 q 28 767 28 764 q 36 778 28 774 q 55 784 44 782 q 76 787 65 786 q 90 788 86 788 q 118 767 118 788 q 117 752 118 760 q 115 736 115 744 l 115 631 q 118 625 115 625 q 122 628 119 625 q 142 671 150 649 q 147 692 138 683 q 178 700 157 700 q 215 678 215 700 q 174 632 215 656 q 175 625 168 628 q 201 597 192 615 l 208 583 q 224 561 218 565 q 231 549 231 554 q 222 538 231 542 q 201 535 214 535 l 174 535 q 153 540 158 535 q 143 557 147 544 q 126 592 138 571 l 118 608 l 115 608 l 115 579 m 281 804 q 243 772 264 788 q 303 764 274 746 q 314 774 308 767 q 321 790 319 781 q 325 799 321 794 q 338 790 332 801 q 335 747 346 768 q 301 710 325 725 q 235 697 268 689 q 183 738 203 706 q 172 803 164 769 q 214 857 179 836 q 260 871 238 872 q 293 850 282 869 q 297 829 300 839 q 281 804 294 819 m 233 788 q 242 825 254 804 q 218 835 229 842 q 224 797 206 826 q 227 792 225 794 q 231 786 229 789 l 233 788 m 421 606 q 431 586 422 589 q 443 576 443 581 q 411 558 444 565 l 379 553 q 343 558 346 547 q 349 572 343 567 q 351 593 353 576 l 339 661 q 335 674 338 669 q 325 682 332 678 q 314 690 314 685 q 320 703 313 697 q 338 712 328 708 q 359 718 349 715 q 374 721 369 721 q 395 720 389 724 q 404 706 401 717 q 406 686 406 700 q 407 683 406 683 q 408 686 408 682 q 416 713 411 697 q 443 733 421 729 q 479 704 472 740 q 444 663 488 669 q 431 659 438 660 q 419 656 425 658 q 413 643 410 653 l 421 606 m 589 608 q 542 619 569 610 q 569 568 538 582 q 584 565 575 565 q 600 568 593 564 q 611 569 607 574 q 611 556 618 567 q 576 531 600 536 q 525 536 553 525 q 476 581 489 550 q 476 647 463 611 q 522 697 492 683 q 589 694 553 710 q 628 665 617 683 q 632 626 640 647 q 618 610 628 615 q 589 608 608 606 m 547 638 q 581 653 572 629 q 575 679 590 674 q 549 651 561 683 q 547 644 547 649 q 544 638 546 640 l 547 638 m 746 644 q 738 679 754 675 q 725 676 731 682 q 713 663 719 669 q 699 650 707 656 q 679 647 692 644 q 663 661 668 651 q 660 682 657 671 q 744 697 671 717 q 814 626 826 674 l 794 557 q 796 536 790 543 q 800 524 801 526 q 787 515 799 517 q 757 519 775 514 q 733 530 740 524 q 722 543 725 536 q 721 549 722 547 q 717 546 717 549 q 693 540 706 542 q 667 542 681 538 q 633 596 622 553 q 735 636 647 647 q 744 642 740 635 l 746 644 m 735 607 q 732 615 736 613 l 729 615 q 706 594 713 615 q 713 572 701 574 q 729 586 725 568 l 735 607 m 129 367 q 135 354 131 360 q 149 350 140 349 q 160 358 157 353 q 168 363 164 363 q 175 353 172 364 q 163 320 178 335 q 121 303 147 306 q 80 310 96 300 q 61 342 64 321 l 51 426 q 42 435 51 432 q 31 446 31 435 q 47 463 29 461 q 71 486 63 465 q 79 501 75 496 q 93 508 83 507 q 115 490 111 513 l 115 479 q 125 472 115 472 l 131 472 q 151 461 150 475 q 135 444 154 446 l 128 443 q 121 435 121 443 l 129 367 m 351 471 q 338 397 351 435 q 301 325 325 360 q 258 278 282 296 q 211 261 235 261 q 184 269 194 261 q 174 293 174 278 q 183 319 174 308 q 207 329 192 329 q 227 325 218 329 q 249 321 236 321 q 269 332 269 321 q 257 339 269 338 l 256 339 q 215 374 225 343 l 190 453 q 178 478 183 474 q 175 494 169 486 q 206 503 181 503 l 232 503 q 260 479 264 503 q 258 472 258 478 q 264 446 258 458 l 278 407 q 287 386 285 392 q 293 381 289 381 q 303 404 303 381 q 297 448 303 431 q 290 478 290 465 q 324 506 290 506 q 351 471 351 506 m 563 396 q 524 343 551 360 q 465 336 497 326 q 440 351 449 340 q 438 353 439 353 q 433 349 435 354 l 424 317 q 424 296 421 303 q 428 282 429 288 q 393 279 425 268 l 363 289 q 332 311 328 300 q 344 319 333 315 q 356 338 351 324 l 399 478 q 397 501 403 493 q 394 514 393 511 q 411 524 396 524 q 434 522 421 524 q 458 515 447 519 q 479 499 479 510 q 485 494 479 492 q 525 496 501 503 q 563 460 553 488 q 563 396 574 432 m 463 360 q 490 393 479 356 q 498 447 500 424 q 485 474 496 471 q 467 460 471 478 l 450 404 q 449 378 447 393 q 463 360 450 364 m 700 432 q 679 422 690 426 q 654 414 668 418 q 708 388 674 379 q 724 393 715 390 q 735 404 732 396 q 742 413 738 411 q 750 400 750 415 q 735 360 751 376 q 690 336 718 343 q 624 345 653 328 q 586 399 594 363 q 595 465 576 436 q 654 501 614 493 q 703 500 682 508 q 728 472 724 492 q 700 432 733 450 m 650 432 q 671 464 678 439 q 650 482 667 485 q 643 443 635 478 q 649 431 646 435 l 650 432 m 776 482 q 802 474 792 482 q 813 451 813 465 q 802 428 813 436 q 776 421 792 421 q 742 451 742 421 q 776 482 742 482 m 161 163 q 158 153 161 156 q 153 144 157 149 l 144 140 q 139 140 142 140 q 133 139 136 139 q 126 140 129 139 q 124 141 125 140 q 121 142 122 142 q 117 143 119 143 q 115 144 115 144 q 115 146 115 146 q 114 147 114 146 l 114 150 l 114 154 l 114 156 q 115 157 115 156 l 115 157 q 118 156 117 157 q 121 154 121 154 q 124 153 122 154 q 126 153 125 153 q 133 151 128 151 l 139 151 q 142 154 142 154 q 144 156 144 154 l 144 160 q 144 165 144 165 q 140 167 143 167 l 136 171 q 131 172 132 171 q 125 176 128 174 q 119 179 122 176 q 117 182 118 182 q 115 185 117 182 l 115 193 q 117 201 115 200 q 121 208 118 206 q 129 211 124 211 q 134 213 132 213 q 139 214 136 214 q 144 213 142 214 q 149 211 147 213 l 153 211 q 154 210 154 211 q 156 210 154 210 l 156 208 l 156 207 l 156 206 l 156 203 l 156 200 l 156 199 l 156 197 l 154 197 q 153 199 153 197 q 150 200 150 200 q 144 201 146 200 l 139 201 l 135 201 q 133 201 133 201 q 132 200 133 200 q 131 197 131 199 q 129 194 129 196 q 130 192 129 193 q 131 190 131 192 q 133 188 133 188 q 139 185 139 185 q 144 182 144 182 q 150 179 147 182 q 156 175 153 178 q 158 172 157 174 q 160 169 158 171 q 160 166 160 167 q 161 163 161 165 m 271 154 q 269 151 271 153 l 269 150 l 269 149 l 268 149 l 250 153 l 236 97 l 236 96 l 235 96 l 232 96 q 229 97 229 96 l 225 97 l 224 97 q 222 99 224 99 l 222 100 l 236 157 l 218 160 l 218 161 l 218 163 l 218 165 l 218 167 l 218 169 q 219 171 219 171 q 221 172 219 172 l 222 172 l 269 160 l 271 160 l 272 160 l 272 157 q 271 154 271 154 m 388 163 q 383 151 385 154 q 376 143 382 149 q 367 140 371 140 q 354 140 361 139 q 342 143 347 140 q 338 146 339 144 q 333 150 336 147 q 329 160 331 156 l 329 171 l 336 214 q 338 215 336 215 l 338 217 l 340 217 q 343 215 343 217 l 347 215 q 349 214 349 214 q 350 213 350 214 l 350 211 l 343 171 l 343 163 q 344 160 343 160 q 346 157 344 160 q 350 154 349 154 q 356 151 353 151 l 363 151 q 365 153 364 153 q 367 154 365 153 q 371 158 371 154 q 372 161 371 160 q 372 165 372 163 l 379 207 q 381 208 379 208 q 382 210 381 210 l 383 210 q 388 208 386 210 l 390 208 q 392 208 392 208 q 393 207 392 207 q 394 206 394 207 l 394 206 l 388 163 m 517 182 q 518 165 518 176 q 514 153 518 160 q 504 143 513 149 q 498 140 501 142 q 489 138 494 139 l 474 133 q 469 133 472 132 q 468 136 468 133 l 450 197 q 451 200 450 200 q 454 203 451 200 l 472 207 q 488 210 483 210 q 494 208 492 208 q 501 206 497 207 q 506 202 504 204 q 510 197 507 200 q 517 182 513 194 m 501 178 q 500 183 500 181 q 499 188 500 185 q 496 192 496 190 q 493 194 496 193 q 489 196 490 196 q 485 197 488 196 q 474 196 479 197 l 467 194 l 479 147 l 486 149 q 496 153 494 151 q 501 160 499 154 q 503 168 503 161 q 502 173 503 171 q 501 178 501 175 m 611 185 l 611 183 l 610 182 l 608 182 l 607 182 q 604 181 606 182 q 601 179 603 179 l 599 179 l 599 179 l 599 181 l 575 244 l 575 244 q 576 246 575 246 q 578 247 578 247 q 581 249 581 249 q 583 250 583 250 l 585 250 l 586 250 l 589 250 l 589 250 l 611 185 m 736 194 q 735 186 736 190 q 735 179 735 182 q 729 167 732 169 q 717 160 726 163 q 710 157 714 158 q 703 156 707 156 q 689 158 697 156 q 683 161 685 161 q 678 164 681 161 q 671 175 674 169 q 668 192 668 183 q 671 207 668 203 q 673 213 672 210 q 676 219 674 217 q 688 228 683 226 q 701 229 690 229 q 717 228 707 231 q 726 222 721 228 q 733 211 732 218 q 735 203 735 207 q 736 194 736 200 m 721 194 q 719 204 721 200 q 717 211 717 210 q 711 217 714 217 q 701 218 708 218 q 693 217 694 218 l 688 211 l 683 203 l 683 193 q 685 182 683 185 q 686 178 686 179 q 689 174 686 176 q 694 169 692 171 q 703 168 696 168 q 708 169 706 168 q 711 171 710 171 q 717 176 715 172 q 718 179 717 178 q 721 183 719 181 l 721 194 z "},"4":{"ha":844,"x_min":28,"x_max":826,"o":"m 115 579 q 122 560 115 565 q 131 549 131 554 q 97 535 131 535 l 65 535 q 31 549 31 535 q 40 560 31 554 q 46 579 46 565 l 46 733 q 44 747 46 743 q 36 756 42 751 q 28 767 28 764 q 36 778 28 774 q 55 784 44 782 q 76 787 65 786 q 90 788 86 788 q 118 767 118 788 q 117 752 118 760 q 115 736 115 744 l 115 631 q 118 625 115 625 q 122 628 119 625 q 142 671 150 649 q 147 692 138 683 q 178 700 157 700 q 215 678 215 700 q 174 632 215 656 q 175 625 168 628 q 201 597 192 615 l 208 583 q 224 561 218 565 q 231 549 231 554 q 222 538 231 542 q 201 535 214 535 l 174 535 q 153 540 158 535 q 143 557 147 544 q 126 592 138 571 l 118 608 l 115 608 l 115 579 m 281 804 q 243 772 264 788 q 303 764 274 746 q 314 774 308 767 q 321 790 319 781 q 325 799 321 794 q 338 790 332 801 q 335 747 346 768 q 301 710 325 725 q 235 697 268 689 q 183 738 203 706 q 172 803 164 769 q 214 857 179 836 q 260 871 238 872 q 293 850 282 869 q 297 829 300 839 q 281 804 294 819 m 233 788 q 242 825 254 804 q 218 835 229 842 q 224 797 206 826 q 227 792 225 794 q 231 786 229 789 l 233 788 m 421 606 q 431 586 422 589 q 443 576 443 581 q 411 558 444 565 l 379 553 q 343 558 346 547 q 349 572 343 567 q 351 593 353 576 l 339 661 q 335 674 338 669 q 325 682 332 678 q 314 690 314 685 q 320 703 313 697 q 338 712 328 708 q 359 718 349 715 q 374 721 369 721 q 395 720 389 724 q 404 706 401 717 q 406 686 406 700 q 407 683 406 683 q 408 686 408 682 q 416 713 411 697 q 443 733 421 729 q 479 704 472 740 q 444 663 488 669 q 431 659 438 660 q 419 656 425 658 q 413 643 410 653 l 421 606 m 589 608 q 542 619 569 610 q 569 568 538 582 q 584 565 575 565 q 600 568 593 564 q 611 569 607 574 q 611 556 618 567 q 576 531 600 536 q 525 536 553 525 q 476 581 489 550 q 476 647 463 611 q 522 697 492 683 q 589 694 553 710 q 628 665 617 683 q 632 626 640 647 q 618 610 628 615 q 589 608 608 606 m 547 638 q 581 653 572 629 q 575 679 590 674 q 549 651 561 683 q 547 644 547 649 q 544 638 546 640 l 547 638 m 746 644 q 738 679 754 675 q 725 676 731 682 q 713 663 719 669 q 699 650 707 656 q 679 647 692 644 q 663 661 668 651 q 660 682 657 671 q 744 697 671 717 q 814 626 826 674 l 794 557 q 796 536 790 543 q 800 524 801 526 q 787 515 799 517 q 757 519 775 514 q 733 530 740 524 q 722 543 725 536 q 721 549 722 547 q 717 546 717 549 q 693 540 706 542 q 667 542 681 538 q 633 596 622 553 q 735 636 647 647 q 744 642 740 635 l 746 644 m 735 607 q 732 615 736 613 l 729 615 q 706 594 713 615 q 713 572 701 574 q 729 586 725 568 l 735 607 m 129 367 q 135 354 131 360 q 149 350 140 349 q 160 358 157 353 q 168 363 164 363 q 175 353 172 364 q 163 320 178 335 q 121 303 147 306 q 80 310 96 300 q 61 342 64 321 l 51 426 q 42 435 51 432 q 31 446 31 435 q 47 463 29 461 q 71 486 63 465 q 79 501 75 496 q 93 508 83 507 q 115 490 111 513 l 115 479 q 125 472 115 472 l 131 472 q 151 461 150 475 q 135 444 154 446 l 128 443 q 121 435 121 443 l 129 367 m 351 471 q 338 397 351 435 q 301 325 325 360 q 258 278 282 296 q 211 261 235 261 q 184 269 194 261 q 174 293 174 278 q 183 319 174 308 q 207 329 192 329 q 227 325 218 329 q 249 321 236 321 q 269 332 269 321 q 257 339 269 338 l 256 339 q 215 374 225 343 l 190 453 q 178 478 183 474 q 175 494 169 486 q 206 503 181 503 l 232 503 q 260 479 264 503 q 258 472 258 478 q 264 446 258 458 l 278 407 q 287 386 285 392 q 293 381 289 381 q 303 404 303 381 q 297 448 303 431 q 290 478 290 465 q 324 506 290 506 q 351 471 351 506 m 563 396 q 524 343 551 360 q 465 336 497 326 q 440 351 449 340 q 438 353 439 353 q 433 349 435 354 l 424 317 q 424 296 421 303 q 428 282 429 288 q 393 279 425 268 l 363 289 q 332 311 328 300 q 344 319 333 315 q 356 338 351 324 l 399 478 q 397 501 403 493 q 394 514 393 511 q 411 524 396 524 q 434 522 421 524 q 458 515 447 519 q 479 499 479 510 q 485 494 479 492 q 525 496 501 503 q 563 460 553 488 q 563 396 574 432 m 463 360 q 490 393 479 356 q 498 447 500 424 q 485 474 496 471 q 467 460 471 478 l 450 404 q 449 378 447 393 q 463 360 450 364 m 700 432 q 679 422 690 426 q 654 414 668 418 q 708 388 674 379 q 724 393 715 390 q 735 404 732 396 q 742 413 738 411 q 750 400 750 415 q 735 360 751 376 q 690 336 718 343 q 624 345 653 328 q 586 399 594 363 q 595 465 576 436 q 654 501 614 493 q 703 500 682 508 q 728 472 724 492 q 700 432 733 450 m 650 432 q 671 464 678 439 q 650 482 667 485 q 643 443 635 478 q 649 431 646 435 l 650 432 m 776 482 q 802 474 792 482 q 813 451 813 465 q 802 428 813 436 q 776 421 792 421 q 742 451 742 421 q 776 482 742 482 m 161 163 q 158 153 161 156 q 153 144 157 149 l 144 140 q 139 140 142 140 q 133 139 136 139 q 126 140 129 139 q 124 141 125 140 q 121 142 122 142 q 117 143 119 143 q 115 144 115 144 q 115 146 115 146 q 114 147 114 146 l 114 150 l 114 154 l 114 156 q 115 157 115 156 l 115 157 q 118 156 117 157 q 121 154 121 154 q 124 153 122 154 q 126 153 125 153 q 133 151 128 151 l 139 151 q 142 154 142 154 q 144 156 144 154 l 144 160 q 144 165 144 165 q 140 167 143 167 l 136 171 q 131 172 132 171 q 125 176 128 174 q 119 179 122 176 q 117 182 118 182 q 115 185 117 182 l 115 193 q 117 201 115 200 q 121 208 118 206 q 129 211 124 211 q 134 213 132 213 q 139 214 136 214 q 144 213 142 214 q 149 211 147 213 l 153 211 q 154 210 154 211 q 156 210 154 210 l 156 208 l 156 207 l 156 206 l 156 203 l 156 200 l 156 199 l 156 197 l 154 197 q 153 199 153 197 q 150 200 150 200 q 144 201 146 200 l 139 201 l 135 201 q 133 201 133 201 q 132 200 133 200 q 131 197 131 199 q 129 194 129 196 q 130 192 129 193 q 131 190 131 192 q 133 188 133 188 q 139 185 139 185 q 144 182 144 182 q 150 179 147 182 q 156 175 153 178 q 158 172 157 174 q 160 169 158 171 q 160 166 160 167 q 161 163 161 165 m 271 154 q 269 151 271 153 l 269 150 l 269 149 l 268 149 l 250 153 l 236 97 l 236 96 l 235 96 l 232 96 q 229 97 229 96 l 225 97 l 224 97 q 222 99 224 99 l 222 100 l 236 157 l 218 160 l 218 161 l 218 163 l 218 165 l 218 167 l 218 169 q 219 171 219 171 q 221 172 219 172 l 222 172 l 269 160 l 271 160 l 272 160 l 272 157 q 271 154 271 154 m 388 163 q 383 151 385 154 q 376 143 382 149 q 367 140 371 140 q 354 140 361 139 q 342 143 347 140 q 338 146 339 144 q 333 150 336 147 q 329 160 331 156 l 329 171 l 336 214 q 338 215 336 215 l 338 217 l 340 217 q 343 215 343 217 l 347 215 q 349 214 349 214 q 350 213 350 214 l 350 211 l 343 171 l 343 163 q 344 160 343 160 q 346 157 344 160 q 350 154 349 154 q 356 151 353 151 l 363 151 q 365 153 364 153 q 367 154 365 153 q 371 158 371 154 q 372 161 371 160 q 372 165 372 163 l 379 207 q 381 208 379 208 q 382 210 381 210 l 383 210 q 388 208 386 210 l 390 208 q 392 208 392 208 q 393 207 392 207 q 394 206 394 207 l 394 206 l 388 163 m 517 182 q 518 165 518 176 q 514 153 518 160 q 504 143 513 149 q 498 140 501 142 q 489 138 494 139 l 474 133 q 469 133 472 132 q 468 136 468 133 l 450 197 q 451 200 450 200 q 454 203 451 200 l 472 207 q 488 210 483 210 q 494 208 492 208 q 501 206 497 207 q 506 202 504 204 q 510 197 507 200 q 517 182 513 194 m 501 178 q 500 183 500 181 q 499 188 500 185 q 496 192 496 190 q 493 194 496 193 q 489 196 490 196 q 485 197 488 196 q 474 196 479 197 l 467 194 l 479 147 l 486 149 q 496 153 494 151 q 501 160 499 154 q 503 168 503 161 q 502 173 503 171 q 501 178 501 175 m 611 185 l 611 183 l 610 182 l 608 182 l 607 182 q 604 181 606 182 q 601 179 603 179 l 599 179 l 599 179 l 599 181 l 575 244 l 575 244 q 576 246 575 246 q 578 247 578 247 q 581 249 581 249 q 583 250 583 250 l 585 250 l 586 250 l 589 250 l 589 250 l 611 185 m 736 194 q 735 186 736 190 q 735 179 735 182 q 729 167 732 169 q 717 160 726 163 q 710 157 714 158 q 703 156 707 156 q 689 158 697 156 q 683 161 685 161 q 678 164 681 161 q 671 175 674 169 q 668 192 668 183 q 671 207 668 203 q 673 213 672 210 q 676 219 674 217 q 688 228 683 226 q 701 229 690 229 q 717 228 707 231 q 726 222 721 228 q 733 211 732 218 q 735 203 735 207 q 736 194 736 200 m 721 194 q 719 204 721 200 q 717 211 717 210 q 711 217 714 217 q 701 218 708 218 q 693 217 694 218 l 688 211 l 683 203 l 683 193 q 685 182 683 185 q 686 178 686 179 q 689 174 686 176 q 694 169 692 171 q 703 168 696 168 q 708 169 706 168 q 711 171 710 171 q 717 176 715 172 q 718 179 717 178 q 721 183 719 181 l 721 194 z "},"5":{"ha":844,"x_min":28,"x_max":826,"o":"m 115 579 q 122 560 115 565 q 131 549 131 554 q 97 535 131 535 l 65 535 q 31 549 31 535 q 40 560 31 554 q 46 579 46 565 l 46 733 q 44 747 46 743 q 36 756 42 751 q 28 767 28 764 q 36 778 28 774 q 55 784 44 782 q 76 787 65 786 q 90 788 86 788 q 118 767 118 788 q 117 752 118 760 q 115 736 115 744 l 115 631 q 118 625 115 625 q 122 628 119 625 q 142 671 150 649 q 147 692 138 683 q 178 700 157 700 q 215 678 215 700 q 174 632 215 656 q 175 625 168 628 q 201 597 192 615 l 208 583 q 224 561 218 565 q 231 549 231 554 q 222 538 231 542 q 201 535 214 535 l 174 535 q 153 540 158 535 q 143 557 147 544 q 126 592 138 571 l 118 608 l 115 608 l 115 579 m 281 804 q 243 772 264 788 q 303 764 274 746 q 314 774 308 767 q 321 790 319 781 q 325 799 321 794 q 338 790 332 801 q 335 747 346 768 q 301 710 325 725 q 235 697 268 689 q 183 738 203 706 q 172 803 164 769 q 214 857 179 836 q 260 871 238 872 q 293 850 282 869 q 297 829 300 839 q 281 804 294 819 m 233 788 q 242 825 254 804 q 218 835 229 842 q 224 797 206 826 q 227 792 225 794 q 231 786 229 789 l 233 788 m 421 606 q 431 586 422 589 q 443 576 443 581 q 411 558 444 565 l 379 553 q 343 558 346 547 q 349 572 343 567 q 351 593 353 576 l 339 661 q 335 674 338 669 q 325 682 332 678 q 314 690 314 685 q 320 703 313 697 q 338 712 328 708 q 359 718 349 715 q 374 721 369 721 q 395 720 389 724 q 404 706 401 717 q 406 686 406 700 q 407 683 406 683 q 408 686 408 682 q 416 713 411 697 q 443 733 421 729 q 479 704 472 740 q 444 663 488 669 q 431 659 438 660 q 419 656 425 658 q 413 643 410 653 l 421 606 m 589 608 q 542 619 569 610 q 569 568 538 582 q 584 565 575 565 q 600 568 593 564 q 611 569 607 574 q 611 556 618 567 q 576 531 600 536 q 525 536 553 525 q 476 581 489 550 q 476 647 463 611 q 522 697 492 683 q 589 694 553 710 q 628 665 617 683 q 632 626 640 647 q 618 610 628 615 q 589 608 608 606 m 547 638 q 581 653 572 629 q 575 679 590 674 q 549 651 561 683 q 547 644 547 649 q 544 638 546 640 l 547 638 m 746 644 q 738 679 754 675 q 725 676 731 682 q 713 663 719 669 q 699 650 707 656 q 679 647 692 644 q 663 661 668 651 q 660 682 657 671 q 744 697 671 717 q 814 626 826 674 l 794 557 q 796 536 790 543 q 800 524 801 526 q 787 515 799 517 q 757 519 775 514 q 733 530 740 524 q 722 543 725 536 q 721 549 722 547 q 717 546 717 549 q 693 540 706 542 q 667 542 681 538 q 633 596 622 553 q 735 636 647 647 q 744 642 740 635 l 746 644 m 735 607 q 732 615 736 613 l 729 615 q 706 594 713 615 q 713 572 701 574 q 729 586 725 568 l 735 607 m 129 367 q 135 354 131 360 q 149 350 140 349 q 160 358 157 353 q 168 363 164 363 q 175 353 172 364 q 163 320 178 335 q 121 303 147 306 q 80 310 96 300 q 61 342 64 321 l 51 426 q 42 435 51 432 q 31 446 31 435 q 47 463 29 461 q 71 486 63 465 q 79 501 75 496 q 93 508 83 507 q 115 490 111 513 l 115 479 q 125 472 115 472 l 131 472 q 151 461 150 475 q 135 444 154 446 l 128 443 q 121 435 121 443 l 129 367 m 351 471 q 338 397 351 435 q 301 325 325 360 q 258 278 282 296 q 211 261 235 261 q 184 269 194 261 q 174 293 174 278 q 183 319 174 308 q 207 329 192 329 q 227 325 218 329 q 249 321 236 321 q 269 332 269 321 q 257 339 269 338 l 256 339 q 215 374 225 343 l 190 453 q 178 478 183 474 q 175 494 169 486 q 206 503 181 503 l 232 503 q 260 479 264 503 q 258 472 258 478 q 264 446 258 458 l 278 407 q 287 386 285 392 q 293 381 289 381 q 303 404 303 381 q 297 448 303 431 q 290 478 290 465 q 324 506 290 506 q 351 471 351 506 m 563 396 q 524 343 551 360 q 465 336 497 326 q 440 351 449 340 q 438 353 439 353 q 433 349 435 354 l 424 317 q 424 296 421 303 q 428 282 429 288 q 393 279 425 268 l 363 289 q 332 311 328 300 q 344 319 333 315 q 356 338 351 324 l 399 478 q 397 501 403 493 q 394 514 393 511 q 411 524 396 524 q 434 522 421 524 q 458 515 447 519 q 479 499 479 510 q 485 494 479 492 q 525 496 501 503 q 563 460 553 488 q 563 396 574 432 m 463 360 q 490 393 479 356 q 498 447 500 424 q 485 474 496 471 q 467 460 471 478 l 450 404 q 449 378 447 393 q 463 360 450 364 m 700 432 q 679 422 690 426 q 654 414 668 418 q 708 388 674 379 q 724 393 715 390 q 735 404 732 396 q 742 413 738 411 q 750 400 750 415 q 735 360 751 376 q 690 336 718 343 q 624 345 653 328 q 586 399 594 363 q 595 465 576 436 q 654 501 614 493 q 703 500 682 508 q 728 472 724 492 q 700 432 733 450 m 650 432 q 671 464 678 439 q 650 482 667 485 q 643 443 635 478 q 649 431 646 435 l 650 432 m 776 482 q 802 474 792 482 q 813 451 813 465 q 802 428 813 436 q 776 421 792 421 q 742 451 742 421 q 776 482 742 482 m 161 163 q 158 153 161 156 q 153 144 157 149 l 144 140 q 139 140 142 140 q 133 139 136 139 q 126 140 129 139 q 124 141 125 140 q 121 142 122 142 q 117 143 119 143 q 115 144 115 144 q 115 146 115 146 q 114 147 114 146 l 114 150 l 114 154 l 114 156 q 115 157 115 156 l 115 157 q 118 156 117 157 q 121 154 121 154 q 124 153 122 154 q 126 153 125 153 q 133 151 128 151 l 139 151 q 142 154 142 154 q 144 156 144 154 l 144 160 q 144 165 144 165 q 140 167 143 167 l 136 171 q 131 172 132 171 q 125 176 128 174 q 119 179 122 176 q 117 182 118 182 q 115 185 117 182 l 115 193 q 117 201 115 200 q 121 208 118 206 q 129 211 124 211 q 134 213 132 213 q 139 214 136 214 q 144 213 142 214 q 149 211 147 213 l 153 211 q 154 210 154 211 q 156 210 154 210 l 156 208 l 156 207 l 156 206 l 156 203 l 156 200 l 156 199 l 156 197 l 154 197 q 153 199 153 197 q 150 200 150 200 q 144 201 146 200 l 139 201 l 135 201 q 133 201 133 201 q 132 200 133 200 q 131 197 131 199 q 129 194 129 196 q 130 192 129 193 q 131 190 131 192 q 133 188 133 188 q 139 185 139 185 q 144 182 144 182 q 150 179 147 182 q 156 175 153 178 q 158 172 157 174 q 160 169 158 171 q 160 166 160 167 q 161 163 161 165 m 271 154 q 269 151 271 153 l 269 150 l 269 149 l 268 149 l 250 153 l 236 97 l 236 96 l 235 96 l 232 96 q 229 97 229 96 l 225 97 l 224 97 q 222 99 224 99 l 222 100 l 236 157 l 218 160 l 218 161 l 218 163 l 218 165 l 218 167 l 218 169 q 219 171 219 171 q 221 172 219 172 l 222 172 l 269 160 l 271 160 l 272 160 l 272 157 q 271 154 271 154 m 388 163 q 383 151 385 154 q 376 143 382 149 q 367 140 371 140 q 354 140 361 139 q 342 143 347 140 q 338 146 339 144 q 333 150 336 147 q 329 160 331 156 l 329 171 l 336 214 q 338 215 336 215 l 338 217 l 340 217 q 343 215 343 217 l 347 215 q 349 214 349 214 q 350 213 350 214 l 350 211 l 343 171 l 343 163 q 344 160 343 160 q 346 157 344 160 q 350 154 349 154 q 356 151 353 151 l 363 151 q 365 153 364 153 q 367 154 365 153 q 371 158 371 154 q 372 161 371 160 q 372 165 372 163 l 379 207 q 381 208 379 208 q 382 210 381 210 l 383 210 q 388 208 386 210 l 390 208 q 392 208 392 208 q 393 207 392 207 q 394 206 394 207 l 394 206 l 388 163 m 517 182 q 518 165 518 176 q 514 153 518 160 q 504 143 513 149 q 498 140 501 142 q 489 138 494 139 l 474 133 q 469 133 472 132 q 468 136 468 133 l 450 197 q 451 200 450 200 q 454 203 451 200 l 472 207 q 488 210 483 210 q 494 208 492 208 q 501 206 497 207 q 506 202 504 204 q 510 197 507 200 q 517 182 513 194 m 501 178 q 500 183 500 181 q 499 188 500 185 q 496 192 496 190 q 493 194 496 193 q 489 196 490 196 q 485 197 488 196 q 474 196 479 197 l 467 194 l 479 147 l 486 149 q 496 153 494 151 q 501 160 499 154 q 503 168 503 161 q 502 173 503 171 q 501 178 501 175 m 611 185 l 611 183 l 610 182 l 608 182 l 607 182 q 604 181 606 182 q 601 179 603 179 l 599 179 l 599 179 l 599 181 l 575 244 l 575 244 q 576 246 575 246 q 578 247 578 247 q 581 249 581 249 q 583 250 583 250 l 585 250 l 586 250 l 589 250 l 589 250 l 611 185 m 736 194 q 735 186 736 190 q 735 179 735 182 q 729 167 732 169 q 717 160 726 163 q 710 157 714 158 q 703 156 707 156 q 689 158 697 156 q 683 161 685 161 q 678 164 681 161 q 671 175 674 169 q 668 192 668 183 q 671 207 668 203 q 673 213 672 210 q 676 219 674 217 q 688 228 683 226 q 701 229 690 229 q 717 228 707 231 q 726 222 721 228 q 733 211 732 218 q 735 203 735 207 q 736 194 736 200 m 721 194 q 719 204 721 200 q 717 211 717 210 q 711 217 714 217 q 701 218 708 218 q 693 217 694 218 l 688 211 l 683 203 l 683 193 q 685 182 683 185 q 686 178 686 179 q 689 174 686 176 q 694 169 692 171 q 703 168 696 168 q 708 169 706 168 q 711 171 710 171 q 717 176 715 172 q 718 179 717 178 q 721 183 719 181 l 721 194 z "},"6":{"ha":844,"x_min":28,"x_max":826,"o":"m 115 579 q 122 560 115 565 q 131 549 131 554 q 97 535 131 535 l 65 535 q 31 549 31 535 q 40 560 31 554 q 46 579 46 565 l 46 733 q 44 747 46 743 q 36 756 42 751 q 28 767 28 764 q 36 778 28 774 q 55 784 44 782 q 76 787 65 786 q 90 788 86 788 q 118 767 118 788 q 117 752 118 760 q 115 736 115 744 l 115 631 q 118 625 115 625 q 122 628 119 625 q 142 671 150 649 q 147 692 138 683 q 178 700 157 700 q 215 678 215 700 q 174 632 215 656 q 175 625 168 628 q 201 597 192 615 l 208 583 q 224 561 218 565 q 231 549 231 554 q 222 538 231 542 q 201 535 214 535 l 174 535 q 153 540 158 535 q 143 557 147 544 q 126 592 138 571 l 118 608 l 115 608 l 115 579 m 281 804 q 243 772 264 788 q 303 764 274 746 q 314 774 308 767 q 321 790 319 781 q 325 799 321 794 q 338 790 332 801 q 335 747 346 768 q 301 710 325 725 q 235 697 268 689 q 183 738 203 706 q 172 803 164 769 q 214 857 179 836 q 260 871 238 872 q 293 850 282 869 q 297 829 300 839 q 281 804 294 819 m 233 788 q 242 825 254 804 q 218 835 229 842 q 224 797 206 826 q 227 792 225 794 q 231 786 229 789 l 233 788 m 421 606 q 431 586 422 589 q 443 576 443 581 q 411 558 444 565 l 379 553 q 343 558 346 547 q 349 572 343 567 q 351 593 353 576 l 339 661 q 335 674 338 669 q 325 682 332 678 q 314 690 314 685 q 320 703 313 697 q 338 712 328 708 q 359 718 349 715 q 374 721 369 721 q 395 720 389 724 q 404 706 401 717 q 406 686 406 700 q 407 683 406 683 q 408 686 408 682 q 416 713 411 697 q 443 733 421 729 q 479 704 472 740 q 444 663 488 669 q 431 659 438 660 q 419 656 425 658 q 413 643 410 653 l 421 606 m 589 608 q 542 619 569 610 q 569 568 538 582 q 584 565 575 565 q 600 568 593 564 q 611 569 607 574 q 611 556 618 567 q 576 531 600 536 q 525 536 553 525 q 476 581 489 550 q 476 647 463 611 q 522 697 492 683 q 589 694 553 710 q 628 665 617 683 q 632 626 640 647 q 618 610 628 615 q 589 608 608 606 m 547 638 q 581 653 572 629 q 575 679 590 674 q 549 651 561 683 q 547 644 547 649 q 544 638 546 640 l 547 638 m 746 644 q 738 679 754 675 q 725 676 731 682 q 713 663 719 669 q 699 650 707 656 q 679 647 692 644 q 663 661 668 651 q 660 682 657 671 q 744 697 671 717 q 814 626 826 674 l 794 557 q 796 536 790 543 q 800 524 801 526 q 787 515 799 517 q 757 519 775 514 q 733 530 740 524 q 722 543 725 536 q 721 549 722 547 q 717 546 717 549 q 693 540 706 542 q 667 542 681 538 q 633 596 622 553 q 735 636 647 647 q 744 642 740 635 l 746 644 m 735 607 q 732 615 736 613 l 729 615 q 706 594 713 615 q 713 572 701 574 q 729 586 725 568 l 735 607 m 129 367 q 135 354 131 360 q 149 350 140 349 q 160 358 157 353 q 168 363 164 363 q 175 353 172 364 q 163 320 178 335 q 121 303 147 306 q 80 310 96 300 q 61 342 64 321 l 51 426 q 42 435 51 432 q 31 446 31 435 q 47 463 29 461 q 71 486 63 465 q 79 501 75 496 q 93 508 83 507 q 115 490 111 513 l 115 479 q 125 472 115 472 l 131 472 q 151 461 150 475 q 135 444 154 446 l 128 443 q 121 435 121 443 l 129 367 m 351 471 q 338 397 351 435 q 301 325 325 360 q 258 278 282 296 q 211 261 235 261 q 184 269 194 261 q 174 293 174 278 q 183 319 174 308 q 207 329 192 329 q 227 325 218 329 q 249 321 236 321 q 269 332 269 321 q 257 339 269 338 l 256 339 q 215 374 225 343 l 190 453 q 178 478 183 474 q 175 494 169 486 q 206 503 181 503 l 232 503 q 260 479 264 503 q 258 472 258 478 q 264 446 258 458 l 278 407 q 287 386 285 392 q 293 381 289 381 q 303 404 303 381 q 297 448 303 431 q 290 478 290 465 q 324 506 290 506 q 351 471 351 506 m 563 396 q 524 343 551 360 q 465 336 497 326 q 440 351 449 340 q 438 353 439 353 q 433 349 435 354 l 424 317 q 424 296 421 303 q 428 282 429 288 q 393 279 425 268 l 363 289 q 332 311 328 300 q 344 319 333 315 q 356 338 351 324 l 399 478 q 397 501 403 493 q 394 514 393 511 q 411 524 396 524 q 434 522 421 524 q 458 515 447 519 q 479 499 479 510 q 485 494 479 492 q 525 496 501 503 q 563 460 553 488 q 563 396 574 432 m 463 360 q 490 393 479 356 q 498 447 500 424 q 485 474 496 471 q 467 460 471 478 l 450 404 q 449 378 447 393 q 463 360 450 364 m 700 432 q 679 422 690 426 q 654 414 668 418 q 708 388 674 379 q 724 393 715 390 q 735 404 732 396 q 742 413 738 411 q 750 400 750 415 q 735 360 751 376 q 690 336 718 343 q 624 345 653 328 q 586 399 594 363 q 595 465 576 436 q 654 501 614 493 q 703 500 682 508 q 728 472 724 492 q 700 432 733 450 m 650 432 q 671 464 678 439 q 650 482 667 485 q 643 443 635 478 q 649 431 646 435 l 650 432 m 776 482 q 802 474 792 482 q 813 451 813 465 q 802 428 813 436 q 776 421 792 421 q 742 451 742 421 q 776 482 742 482 m 161 163 q 158 153 161 156 q 153 144 157 149 l 144 140 q 139 140 142 140 q 133 139 136 139 q 126 140 129 139 q 124 141 125 140 q 121 142 122 142 q 117 143 119 143 q 115 144 115 144 q 115 146 115 146 q 114 147 114 146 l 114 150 l 114 154 l 114 156 q 115 157 115 156 l 115 157 q 118 156 117 157 q 121 154 121 154 q 124 153 122 154 q 126 153 125 153 q 133 151 128 151 l 139 151 q 142 154 142 154 q 144 156 144 154 l 144 160 q 144 165 144 165 q 140 167 143 167 l 136 171 q 131 172 132 171 q 125 176 128 174 q 119 179 122 176 q 117 182 118 182 q 115 185 117 182 l 115 193 q 117 201 115 200 q 121 208 118 206 q 129 211 124 211 q 134 213 132 213 q 139 214 136 214 q 144 213 142 214 q 149 211 147 213 l 153 211 q 154 210 154 211 q 156 210 154 210 l 156 208 l 156 207 l 156 206 l 156 203 l 156 200 l 156 199 l 156 197 l 154 197 q 153 199 153 197 q 150 200 150 200 q 144 201 146 200 l 139 201 l 135 201 q 133 201 133 201 q 132 200 133 200 q 131 197 131 199 q 129 194 129 196 q 130 192 129 193 q 131 190 131 192 q 133 188 133 188 q 139 185 139 185 q 144 182 144 182 q 150 179 147 182 q 156 175 153 178 q 158 172 157 174 q 160 169 158 171 q 160 166 160 167 q 161 163 161 165 m 271 154 q 269 151 271 153 l 269 150 l 269 149 l 268 149 l 250 153 l 236 97 l 236 96 l 235 96 l 232 96 q 229 97 229 96 l 225 97 l 224 97 q 222 99 224 99 l 222 100 l 236 157 l 218 160 l 218 161 l 218 163 l 218 165 l 218 167 l 218 169 q 219 171 219 171 q 221 172 219 172 l 222 172 l 269 160 l 271 160 l 272 160 l 272 157 q 271 154 271 154 m 388 163 q 383 151 385 154 q 376 143 382 149 q 367 140 371 140 q 354 140 361 139 q 342 143 347 140 q 338 146 339 144 q 333 150 336 147 q 329 160 331 156 l 329 171 l 336 214 q 338 215 336 215 l 338 217 l 340 217 q 343 215 343 217 l 347 215 q 349 214 349 214 q 350 213 350 214 l 350 211 l 343 171 l 343 163 q 344 160 343 160 q 346 157 344 160 q 350 154 349 154 q 356 151 353 151 l 363 151 q 365 153 364 153 q 367 154 365 153 q 371 158 371 154 q 372 161 371 160 q 372 165 372 163 l 379 207 q 381 208 379 208 q 382 210 381 210 l 383 210 q 388 208 386 210 l 390 208 q 392 208 392 208 q 393 207 392 207 q 394 206 394 207 l 394 206 l 388 163 m 517 182 q 518 165 518 176 q 514 153 518 160 q 504 143 513 149 q 498 140 501 142 q 489 138 494 139 l 474 133 q 469 133 472 132 q 468 136 468 133 l 450 197 q 451 200 450 200 q 454 203 451 200 l 472 207 q 488 210 483 210 q 494 208 492 208 q 501 206 497 207 q 506 202 504 204 q 510 197 507 200 q 517 182 513 194 m 501 178 q 500 183 500 181 q 499 188 500 185 q 496 192 496 190 q 493 194 496 193 q 489 196 490 196 q 485 197 488 196 q 474 196 479 197 l 467 194 l 479 147 l 486 149 q 496 153 494 151 q 501 160 499 154 q 503 168 503 161 q 502 173 503 171 q 501 178 501 175 m 611 185 l 611 183 l 610 182 l 608 182 l 607 182 q 604 181 606 182 q 601 179 603 179 l 599 179 l 599 179 l 599 181 l 575 244 l 575 244 q 576 246 575 246 q 578 247 578 247 q 581 249 581 249 q 583 250 583 250 l 585 250 l 586 250 l 589 250 l 589 250 l 611 185 m 736 194 q 735 186 736 190 q 735 179 735 182 q 729 167 732 169 q 717 160 726 163 q 710 157 714 158 q 703 156 707 156 q 689 158 697 156 q 683 161 685 161 q 678 164 681 161 q 671 175 674 169 q 668 192 668 183 q 671 207 668 203 q 673 213 672 210 q 676 219 674 217 q 688 228 683 226 q 701 229 690 229 q 717 228 707 231 q 726 222 721 228 q 733 211 732 218 q 735 203 735 207 q 736 194 736 200 m 721 194 q 719 204 721 200 q 717 211 717 210 q 711 217 714 217 q 701 218 708 218 q 693 217 694 218 l 688 211 l 683 203 l 683 193 q 685 182 683 185 q 686 178 686 179 q 689 174 686 176 q 694 169 692 171 q 703 168 696 168 q 708 169 706 168 q 711 171 710 171 q 717 176 715 172 q 718 179 717 178 q 721 183 719 181 l 721 194 z "},"7":{"ha":844,"x_min":28,"x_max":826,"o":"m 115 579 q 122 560 115 565 q 131 549 131 554 q 97 535 131 535 l 65 535 q 31 549 31 535 q 40 560 31 554 q 46 579 46 565 l 46 733 q 44 747 46 743 q 36 756 42 751 q 28 767 28 764 q 36 778 28 774 q 55 784 44 782 q 76 787 65 786 q 90 788 86 788 q 118 767 118 788 q 117 752 118 760 q 115 736 115 744 l 115 631 q 118 625 115 625 q 122 628 119 625 q 142 671 150 649 q 147 692 138 683 q 178 700 157 700 q 215 678 215 700 q 174 632 215 656 q 175 625 168 628 q 201 597 192 615 l 208 583 q 224 561 218 565 q 231 549 231 554 q 222 538 231 542 q 201 535 214 535 l 174 535 q 153 540 158 535 q 143 557 147 544 q 126 592 138 571 l 118 608 l 115 608 l 115 579 m 281 804 q 243 772 264 788 q 303 764 274 746 q 314 774 308 767 q 321 790 319 781 q 325 799 321 794 q 338 790 332 801 q 335 747 346 768 q 301 710 325 725 q 235 697 268 689 q 183 738 203 706 q 172 803 164 769 q 214 857 179 836 q 260 871 238 872 q 293 850 282 869 q 297 829 300 839 q 281 804 294 819 m 233 788 q 242 825 254 804 q 218 835 229 842 q 224 797 206 826 q 227 792 225 794 q 231 786 229 789 l 233 788 m 421 606 q 431 586 422 589 q 443 576 443 581 q 411 558 444 565 l 379 553 q 343 558 346 547 q 349 572 343 567 q 351 593 353 576 l 339 661 q 335 674 338 669 q 325 682 332 678 q 314 690 314 685 q 320 703 313 697 q 338 712 328 708 q 359 718 349 715 q 374 721 369 721 q 395 720 389 724 q 404 706 401 717 q 406 686 406 700 q 407 683 406 683 q 408 686 408 682 q 416 713 411 697 q 443 733 421 729 q 479 704 472 740 q 444 663 488 669 q 431 659 438 660 q 419 656 425 658 q 413 643 410 653 l 421 606 m 589 608 q 542 619 569 610 q 569 568 538 582 q 584 565 575 565 q 600 568 593 564 q 611 569 607 574 q 611 556 618 567 q 576 531 600 536 q 525 536 553 525 q 476 581 489 550 q 476 647 463 611 q 522 697 492 683 q 589 694 553 710 q 628 665 617 683 q 632 626 640 647 q 618 610 628 615 q 589 608 608 606 m 547 638 q 581 653 572 629 q 575 679 590 674 q 549 651 561 683 q 547 644 547 649 q 544 638 546 640 l 547 638 m 746 644 q 738 679 754 675 q 725 676 731 682 q 713 663 719 669 q 699 650 707 656 q 679 647 692 644 q 663 661 668 651 q 660 682 657 671 q 744 697 671 717 q 814 626 826 674 l 794 557 q 796 536 790 543 q 800 524 801 526 q 787 515 799 517 q 757 519 775 514 q 733 530 740 524 q 722 543 725 536 q 721 549 722 547 q 717 546 717 549 q 693 540 706 542 q 667 542 681 538 q 633 596 622 553 q 735 636 647 647 q 744 642 740 635 l 746 644 m 735 607 q 732 615 736 613 l 729 615 q 706 594 713 615 q 713 572 701 574 q 729 586 725 568 l 735 607 m 129 367 q 135 354 131 360 q 149 350 140 349 q 160 358 157 353 q 168 363 164 363 q 175 353 172 364 q 163 320 178 335 q 121 303 147 306 q 80 310 96 300 q 61 342 64 321 l 51 426 q 42 435 51 432 q 31 446 31 435 q 47 463 29 461 q 71 486 63 465 q 79 501 75 496 q 93 508 83 507 q 115 490 111 513 l 115 479 q 125 472 115 472 l 131 472 q 151 461 150 475 q 135 444 154 446 l 128 443 q 121 435 121 443 l 129 367 m 351 471 q 338 397 351 435 q 301 325 325 360 q 258 278 282 296 q 211 261 235 261 q 184 269 194 261 q 174 293 174 278 q 183 319 174 308 q 207 329 192 329 q 227 325 218 329 q 249 321 236 321 q 269 332 269 321 q 257 339 269 338 l 256 339 q 215 374 225 343 l 190 453 q 178 478 183 474 q 175 494 169 486 q 206 503 181 503 l 232 503 q 260 479 264 503 q 258 472 258 478 q 264 446 258 458 l 278 407 q 287 386 285 392 q 293 381 289 381 q 303 404 303 381 q 297 448 303 431 q 290 478 290 465 q 324 506 290 506 q 351 471 351 506 m 563 396 q 524 343 551 360 q 465 336 497 326 q 440 351 449 340 q 438 353 439 353 q 433 349 435 354 l 424 317 q 424 296 421 303 q 428 282 429 288 q 393 279 425 268 l 363 289 q 332 311 328 300 q 344 319 333 315 q 356 338 351 324 l 399 478 q 397 501 403 493 q 394 514 393 511 q 411 524 396 524 q 434 522 421 524 q 458 515 447 519 q 479 499 479 510 q 485 494 479 492 q 525 496 501 503 q 563 460 553 488 q 563 396 574 432 m 463 360 q 490 393 479 356 q 498 447 500 424 q 485 474 496 471 q 467 460 471 478 l 450 404 q 449 378 447 393 q 463 360 450 364 m 700 432 q 679 422 690 426 q 654 414 668 418 q 708 388 674 379 q 724 393 715 390 q 735 404 732 396 q 742 413 738 411 q 750 400 750 415 q 735 360 751 376 q 690 336 718 343 q 624 345 653 328 q 586 399 594 363 q 595 465 576 436 q 654 501 614 493 q 703 500 682 508 q 728 472 724 492 q 700 432 733 450 m 650 432 q 671 464 678 439 q 650 482 667 485 q 643 443 635 478 q 649 431 646 435 l 650 432 m 776 482 q 802 474 792 482 q 813 451 813 465 q 802 428 813 436 q 776 421 792 421 q 742 451 742 421 q 776 482 742 482 m 161 163 q 158 153 161 156 q 153 144 157 149 l 144 140 q 139 140 142 140 q 133 139 136 139 q 126 140 129 139 q 124 141 125 140 q 121 142 122 142 q 117 143 119 143 q 115 144 115 144 q 115 146 115 146 q 114 147 114 146 l 114 150 l 114 154 l 114 156 q 115 157 115 156 l 115 157 q 118 156 117 157 q 121 154 121 154 q 124 153 122 154 q 126 153 125 153 q 133 151 128 151 l 139 151 q 142 154 142 154 q 144 156 144 154 l 144 160 q 144 165 144 165 q 140 167 143 167 l 136 171 q 131 172 132 171 q 125 176 128 174 q 119 179 122 176 q 117 182 118 182 q 115 185 117 182 l 115 193 q 117 201 115 200 q 121 208 118 206 q 129 211 124 211 q 134 213 132 213 q 139 214 136 214 q 144 213 142 214 q 149 211 147 213 l 153 211 q 154 210 154 211 q 156 210 154 210 l 156 208 l 156 207 l 156 206 l 156 203 l 156 200 l 156 199 l 156 197 l 154 197 q 153 199 153 197 q 150 200 150 200 q 144 201 146 200 l 139 201 l 135 201 q 133 201 133 201 q 132 200 133 200 q 131 197 131 199 q 129 194 129 196 q 130 192 129 193 q 131 190 131 192 q 133 188 133 188 q 139 185 139 185 q 144 182 144 182 q 150 179 147 182 q 156 175 153 178 q 158 172 157 174 q 160 169 158 171 q 160 166 160 167 q 161 163 161 165 m 271 154 q 269 151 271 153 l 269 150 l 269 149 l 268 149 l 250 153 l 236 97 l 236 96 l 235 96 l 232 96 q 229 97 229 96 l 225 97 l 224 97 q 222 99 224 99 l 222 100 l 236 157 l 218 160 l 218 161 l 218 163 l 218 165 l 218 167 l 218 169 q 219 171 219 171 q 221 172 219 172 l 222 172 l 269 160 l 271 160 l 272 160 l 272 157 q 271 154 271 154 m 388 163 q 383 151 385 154 q 376 143 382 149 q 367 140 371 140 q 354 140 361 139 q 342 143 347 140 q 338 146 339 144 q 333 150 336 147 q 329 160 331 156 l 329 171 l 336 214 q 338 215 336 215 l 338 217 l 340 217 q 343 215 343 217 l 347 215 q 349 214 349 214 q 350 213 350 214 l 350 211 l 343 171 l 343 163 q 344 160 343 160 q 346 157 344 160 q 350 154 349 154 q 356 151 353 151 l 363 151 q 365 153 364 153 q 367 154 365 153 q 371 158 371 154 q 372 161 371 160 q 372 165 372 163 l 379 207 q 381 208 379 208 q 382 210 381 210 l 383 210 q 388 208 386 210 l 390 208 q 392 208 392 208 q 393 207 392 207 q 394 206 394 207 l 394 206 l 388 163 m 517 182 q 518 165 518 176 q 514 153 518 160 q 504 143 513 149 q 498 140 501 142 q 489 138 494 139 l 474 133 q 469 133 472 132 q 468 136 468 133 l 450 197 q 451 200 450 200 q 454 203 451 200 l 472 207 q 488 210 483 210 q 494 208 492 208 q 501 206 497 207 q 506 202 504 204 q 510 197 507 200 q 517 182 513 194 m 501 178 q 500 183 500 181 q 499 188 500 185 q 496 192 496 190 q 493 194 496 193 q 489 196 490 196 q 485 197 488 196 q 474 196 479 197 l 467 194 l 479 147 l 486 149 q 496 153 494 151 q 501 160 499 154 q 503 168 503 161 q 502 173 503 171 q 501 178 501 175 m 611 185 l 611 183 l 610 182 l 608 182 l 607 182 q 604 181 606 182 q 601 179 603 179 l 599 179 l 599 179 l 599 181 l 575 244 l 575 244 q 576 246 575 246 q 578 247 578 247 q 581 249 581 249 q 583 250 583 250 l 585 250 l 586 250 l 589 250 l 589 250 l 611 185 m 736 194 q 735 186 736 190 q 735 179 735 182 q 729 167 732 169 q 717 160 726 163 q 710 157 714 158 q 703 156 707 156 q 689 158 697 156 q 683 161 685 161 q 678 164 681 161 q 671 175 674 169 q 668 192 668 183 q 671 207 668 203 q 673 213 672 210 q 676 219 674 217 q 688 228 683 226 q 701 229 690 229 q 717 228 707 231 q 726 222 721 228 q 733 211 732 218 q 735 203 735 207 q 736 194 736 200 m 721 194 q 719 204 721 200 q 717 211 717 210 q 711 217 714 217 q 701 218 708 218 q 693 217 694 218 l 688 211 l 683 203 l 683 193 q 685 182 683 185 q 686 178 686 179 q 689 174 686 176 q 694 169 692 171 q 703 168 696 168 q 708 169 706 168 q 711 171 710 171 q 717 176 715 172 q 718 179 717 178 q 721 183 719 181 l 721 194 z "},"8":{"ha":844,"x_min":28,"x_max":826,"o":"m 115 579 q 122 560 115 565 q 131 549 131 554 q 97 535 131 535 l 65 535 q 31 549 31 535 q 40 560 31 554 q 46 579 46 565 l 46 733 q 44 747 46 743 q 36 756 42 751 q 28 767 28 764 q 36 778 28 774 q 55 784 44 782 q 76 787 65 786 q 90 788 86 788 q 118 767 118 788 q 117 752 118 760 q 115 736 115 744 l 115 631 q 118 625 115 625 q 122 628 119 625 q 142 671 150 649 q 147 692 138 683 q 178 700 157 700 q 215 678 215 700 q 174 632 215 656 q 175 625 168 628 q 201 597 192 615 l 208 583 q 224 561 218 565 q 231 549 231 554 q 222 538 231 542 q 201 535 214 535 l 174 535 q 153 540 158 535 q 143 557 147 544 q 126 592 138 571 l 118 608 l 115 608 l 115 579 m 281 804 q 243 772 264 788 q 303 764 274 746 q 314 774 308 767 q 321 790 319 781 q 325 799 321 794 q 338 790 332 801 q 335 747 346 768 q 301 710 325 725 q 235 697 268 689 q 183 738 203 706 q 172 803 164 769 q 214 857 179 836 q 260 871 238 872 q 293 850 282 869 q 297 829 300 839 q 281 804 294 819 m 233 788 q 242 825 254 804 q 218 835 229 842 q 224 797 206 826 q 227 792 225 794 q 231 786 229 789 l 233 788 m 421 606 q 431 586 422 589 q 443 576 443 581 q 411 558 444 565 l 379 553 q 343 558 346 547 q 349 572 343 567 q 351 593 353 576 l 339 661 q 335 674 338 669 q 325 682 332 678 q 314 690 314 685 q 320 703 313 697 q 338 712 328 708 q 359 718 349 715 q 374 721 369 721 q 395 720 389 724 q 404 706 401 717 q 406 686 406 700 q 407 683 406 683 q 408 686 408 682 q 416 713 411 697 q 443 733 421 729 q 479 704 472 740 q 444 663 488 669 q 431 659 438 660 q 419 656 425 658 q 413 643 410 653 l 421 606 m 589 608 q 542 619 569 610 q 569 568 538 582 q 584 565 575 565 q 600 568 593 564 q 611 569 607 574 q 611 556 618 567 q 576 531 600 536 q 525 536 553 525 q 476 581 489 550 q 476 647 463 611 q 522 697 492 683 q 589 694 553 710 q 628 665 617 683 q 632 626 640 647 q 618 610 628 615 q 589 608 608 606 m 547 638 q 581 653 572 629 q 575 679 590 674 q 549 651 561 683 q 547 644 547 649 q 544 638 546 640 l 547 638 m 746 644 q 738 679 754 675 q 725 676 731 682 q 713 663 719 669 q 699 650 707 656 q 679 647 692 644 q 663 661 668 651 q 660 682 657 671 q 744 697 671 717 q 814 626 826 674 l 794 557 q 796 536 790 543 q 800 524 801 526 q 787 515 799 517 q 757 519 775 514 q 733 530 740 524 q 722 543 725 536 q 721 549 722 547 q 717 546 717 549 q 693 540 706 542 q 667 542 681 538 q 633 596 622 553 q 735 636 647 647 q 744 642 740 635 l 746 644 m 735 607 q 732 615 736 613 l 729 615 q 706 594 713 615 q 713 572 701 574 q 729 586 725 568 l 735 607 m 129 367 q 135 354 131 360 q 149 350 140 349 q 160 358 157 353 q 168 363 164 363 q 175 353 172 364 q 163 320 178 335 q 121 303 147 306 q 80 310 96 300 q 61 342 64 321 l 51 426 q 42 435 51 432 q 31 446 31 435 q 47 463 29 461 q 71 486 63 465 q 79 501 75 496 q 93 508 83 507 q 115 490 111 513 l 115 479 q 125 472 115 472 l 131 472 q 151 461 150 475 q 135 444 154 446 l 128 443 q 121 435 121 443 l 129 367 m 351 471 q 338 397 351 435 q 301 325 325 360 q 258 278 282 296 q 211 261 235 261 q 184 269 194 261 q 174 293 174 278 q 183 319 174 308 q 207 329 192 329 q 227 325 218 329 q 249 321 236 321 q 269 332 269 321 q 257 339 269 338 l 256 339 q 215 374 225 343 l 190 453 q 178 478 183 474 q 175 494 169 486 q 206 503 181 503 l 232 503 q 260 479 264 503 q 258 472 258 478 q 264 446 258 458 l 278 407 q 287 386 285 392 q 293 381 289 381 q 303 404 303 381 q 297 448 303 431 q 290 478 290 465 q 324 506 290 506 q 351 471 351 506 m 563 396 q 524 343 551 360 q 465 336 497 326 q 440 351 449 340 q 438 353 439 353 q 433 349 435 354 l 424 317 q 424 296 421 303 q 428 282 429 288 q 393 279 425 268 l 363 289 q 332 311 328 300 q 344 319 333 315 q 356 338 351 324 l 399 478 q 397 501 403 493 q 394 514 393 511 q 411 524 396 524 q 434 522 421 524 q 458 515 447 519 q 479 499 479 510 q 485 494 479 492 q 525 496 501 503 q 563 460 553 488 q 563 396 574 432 m 463 360 q 490 393 479 356 q 498 447 500 424 q 485 474 496 471 q 467 460 471 478 l 450 404 q 449 378 447 393 q 463 360 450 364 m 700 432 q 679 422 690 426 q 654 414 668 418 q 708 388 674 379 q 724 393 715 390 q 735 404 732 396 q 742 413 738 411 q 750 400 750 415 q 735 360 751 376 q 690 336 718 343 q 624 345 653 328 q 586 399 594 363 q 595 465 576 436 q 654 501 614 493 q 703 500 682 508 q 728 472 724 492 q 700 432 733 450 m 650 432 q 671 464 678 439 q 650 482 667 485 q 643 443 635 478 q 649 431 646 435 l 650 432 m 776 482 q 802 474 792 482 q 813 451 813 465 q 802 428 813 436 q 776 421 792 421 q 742 451 742 421 q 776 482 742 482 m 161 163 q 158 153 161 156 q 153 144 157 149 l 144 140 q 139 140 142 140 q 133 139 136 139 q 126 140 129 139 q 124 141 125 140 q 121 142 122 142 q 117 143 119 143 q 115 144 115 144 q 115 146 115 146 q 114 147 114 146 l 114 150 l 114 154 l 114 156 q 115 157 115 156 l 115 157 q 118 156 117 157 q 121 154 121 154 q 124 153 122 154 q 126 153 125 153 q 133 151 128 151 l 139 151 q 142 154 142 154 q 144 156 144 154 l 144 160 q 144 165 144 165 q 140 167 143 167 l 136 171 q 131 172 132 171 q 125 176 128 174 q 119 179 122 176 q 117 182 118 182 q 115 185 117 182 l 115 193 q 117 201 115 200 q 121 208 118 206 q 129 211 124 211 q 134 213 132 213 q 139 214 136 214 q 144 213 142 214 q 149 211 147 213 l 153 211 q 154 210 154 211 q 156 210 154 210 l 156 208 l 156 207 l 156 206 l 156 203 l 156 200 l 156 199 l 156 197 l 154 197 q 153 199 153 197 q 150 200 150 200 q 144 201 146 200 l 139 201 l 135 201 q 133 201 133 201 q 132 200 133 200 q 131 197 131 199 q 129 194 129 196 q 130 192 129 193 q 131 190 131 192 q 133 188 133 188 q 139 185 139 185 q 144 182 144 182 q 150 179 147 182 q 156 175 153 178 q 158 172 157 174 q 160 169 158 171 q 160 166 160 167 q 161 163 161 165 m 271 154 q 269 151 271 153 l 269 150 l 269 149 l 268 149 l 250 153 l 236 97 l 236 96 l 235 96 l 232 96 q 229 97 229 96 l 225 97 l 224 97 q 222 99 224 99 l 222 100 l 236 157 l 218 160 l 218 161 l 218 163 l 218 165 l 218 167 l 218 169 q 219 171 219 171 q 221 172 219 172 l 222 172 l 269 160 l 271 160 l 272 160 l 272 157 q 271 154 271 154 m 388 163 q 383 151 385 154 q 376 143 382 149 q 367 140 371 140 q 354 140 361 139 q 342 143 347 140 q 338 146 339 144 q 333 150 336 147 q 329 160 331 156 l 329 171 l 336 214 q 338 215 336 215 l 338 217 l 340 217 q 343 215 343 217 l 347 215 q 349 214 349 214 q 350 213 350 214 l 350 211 l 343 171 l 343 163 q 344 160 343 160 q 346 157 344 160 q 350 154 349 154 q 356 151 353 151 l 363 151 q 365 153 364 153 q 367 154 365 153 q 371 158 371 154 q 372 161 371 160 q 372 165 372 163 l 379 207 q 381 208 379 208 q 382 210 381 210 l 383 210 q 388 208 386 210 l 390 208 q 392 208 392 208 q 393 207 392 207 q 394 206 394 207 l 394 206 l 388 163 m 517 182 q 518 165 518 176 q 514 153 518 160 q 504 143 513 149 q 498 140 501 142 q 489 138 494 139 l 474 133 q 469 133 472 132 q 468 136 468 133 l 450 197 q 451 200 450 200 q 454 203 451 200 l 472 207 q 488 210 483 210 q 494 208 492 208 q 501 206 497 207 q 506 202 504 204 q 510 197 507 200 q 517 182 513 194 m 501 178 q 500 183 500 181 q 499 188 500 185 q 496 192 496 190 q 493 194 496 193 q 489 196 490 196 q 485 197 488 196 q 474 196 479 197 l 467 194 l 479 147 l 486 149 q 496 153 494 151 q 501 160 499 154 q 503 168 503 161 q 502 173 503 171 q 501 178 501 175 m 611 185 l 611 183 l 610 182 l 608 182 l 607 182 q 604 181 606 182 q 601 179 603 179 l 599 179 l 599 179 l 599 181 l 575 244 l 575 244 q 576 246 575 246 q 578 247 578 247 q 581 249 581 249 q 583 250 583 250 l 585 250 l 586 250 l 589 250 l 589 250 l 611 185 m 736 194 q 735 186 736 190 q 735 179 735 182 q 729 167 732 169 q 717 160 726 163 q 710 157 714 158 q 703 156 707 156 q 689 158 697 156 q 683 161 685 161 q 678 164 681 161 q 671 175 674 169 q 668 192 668 183 q 671 207 668 203 q 673 213 672 210 q 676 219 674 217 q 688 228 683 226 q 701 229 690 229 q 717 228 707 231 q 726 222 721 228 q 733 211 732 218 q 735 203 735 207 q 736 194 736 200 m 721 194 q 719 204 721 200 q 717 211 717 210 q 711 217 714 217 q 701 218 708 218 q 693 217 694 218 l 688 211 l 683 203 l 683 193 q 685 182 683 185 q 686 178 686 179 q 689 174 686 176 q 694 169 692 171 q 703 168 696 168 q 708 169 706 168 q 711 171 710 171 q 717 176 715 172 q 718 179 717 178 q 721 183 719 181 l 721 194 z "},"9":{"ha":844,"x_min":28,"x_max":826,"o":"m 115 579 q 122 560 115 565 q 131 549 131 554 q 97 535 131 535 l 65 535 q 31 549 31 535 q 40 560 31 554 q 46 579 46 565 l 46 733 q 44 747 46 743 q 36 756 42 751 q 28 767 28 764 q 36 778 28 774 q 55 784 44 782 q 76 787 65 786 q 90 788 86 788 q 118 767 118 788 q 117 752 118 760 q 115 736 115 744 l 115 631 q 118 625 115 625 q 122 628 119 625 q 142 671 150 649 q 147 692 138 683 q 178 700 157 700 q 215 678 215 700 q 174 632 215 656 q 175 625 168 628 q 201 597 192 615 l 208 583 q 224 561 218 565 q 231 549 231 554 q 222 538 231 542 q 201 535 214 535 l 174 535 q 153 540 158 535 q 143 557 147 544 q 126 592 138 571 l 118 608 l 115 608 l 115 579 m 281 804 q 243 772 264 788 q 303 764 274 746 q 314 774 308 767 q 321 790 319 781 q 325 799 321 794 q 338 790 332 801 q 335 747 346 768 q 301 710 325 725 q 235 697 268 689 q 183 738 203 706 q 172 803 164 769 q 214 857 179 836 q 260 871 238 872 q 293 850 282 869 q 297 829 300 839 q 281 804 294 819 m 233 788 q 242 825 254 804 q 218 835 229 842 q 224 797 206 826 q 227 792 225 794 q 231 786 229 789 l 233 788 m 421 606 q 431 586 422 589 q 443 576 443 581 q 411 558 444 565 l 379 553 q 343 558 346 547 q 349 572 343 567 q 351 593 353 576 l 339 661 q 335 674 338 669 q 325 682 332 678 q 314 690 314 685 q 320 703 313 697 q 338 712 328 708 q 359 718 349 715 q 374 721 369 721 q 395 720 389 724 q 404 706 401 717 q 406 686 406 700 q 407 683 406 683 q 408 686 408 682 q 416 713 411 697 q 443 733 421 729 q 479 704 472 740 q 444 663 488 669 q 431 659 438 660 q 419 656 425 658 q 413 643 410 653 l 421 606 m 589 608 q 542 619 569 610 q 569 568 538 582 q 584 565 575 565 q 600 568 593 564 q 611 569 607 574 q 611 556 618 567 q 576 531 600 536 q 525 536 553 525 q 476 581 489 550 q 476 647 463 611 q 522 697 492 683 q 589 694 553 710 q 628 665 617 683 q 632 626 640 647 q 618 610 628 615 q 589 608 608 606 m 547 638 q 581 653 572 629 q 575 679 590 674 q 549 651 561 683 q 547 644 547 649 q 544 638 546 640 l 547 638 m 746 644 q 738 679 754 675 q 725 676 731 682 q 713 663 719 669 q 699 650 707 656 q 679 647 692 644 q 663 661 668 651 q 660 682 657 671 q 744 697 671 717 q 814 626 826 674 l 794 557 q 796 536 790 543 q 800 524 801 526 q 787 515 799 517 q 757 519 775 514 q 733 530 740 524 q 722 543 725 536 q 721 549 722 547 q 717 546 717 549 q 693 540 706 542 q 667 542 681 538 q 633 596 622 553 q 735 636 647 647 q 744 642 740 635 l 746 644 m 735 607 q 732 615 736 613 l 729 615 q 706 594 713 615 q 713 572 701 574 q 729 586 725 568 l 735 607 m 129 367 q 135 354 131 360 q 149 350 140 349 q 160 358 157 353 q 168 363 164 363 q 175 353 172 364 q 163 320 178 335 q 121 303 147 306 q 80 310 96 300 q 61 342 64 321 l 51 426 q 42 435 51 432 q 31 446 31 435 q 47 463 29 461 q 71 486 63 465 q 79 501 75 496 q 93 508 83 507 q 115 490 111 513 l 115 479 q 125 472 115 472 l 131 472 q 151 461 150 475 q 135 444 154 446 l 128 443 q 121 435 121 443 l 129 367 m 351 471 q 338 397 351 435 q 301 325 325 360 q 258 278 282 296 q 211 261 235 261 q 184 269 194 261 q 174 293 174 278 q 183 319 174 308 q 207 329 192 329 q 227 325 218 329 q 249 321 236 321 q 269 332 269 321 q 257 339 269 338 l 256 339 q 215 374 225 343 l 190 453 q 178 478 183 474 q 175 494 169 486 q 206 503 181 503 l 232 503 q 260 479 264 503 q 258 472 258 478 q 264 446 258 458 l 278 407 q 287 386 285 392 q 293 381 289 381 q 303 404 303 381 q 297 448 303 431 q 290 478 290 465 q 324 506 290 506 q 351 471 351 506 m 563 396 q 524 343 551 360 q 465 336 497 326 q 440 351 449 340 q 438 353 439 353 q 433 349 435 354 l 424 317 q 424 296 421 303 q 428 282 429 288 q 393 279 425 268 l 363 289 q 332 311 328 300 q 344 319 333 315 q 356 338 351 324 l 399 478 q 397 501 403 493 q 394 514 393 511 q 411 524 396 524 q 434 522 421 524 q 458 515 447 519 q 479 499 479 510 q 485 494 479 492 q 525 496 501 503 q 563 460 553 488 q 563 396 574 432 m 463 360 q 490 393 479 356 q 498 447 500 424 q 485 474 496 471 q 467 460 471 478 l 450 404 q 449 378 447 393 q 463 360 450 364 m 700 432 q 679 422 690 426 q 654 414 668 418 q 708 388 674 379 q 724 393 715 390 q 735 404 732 396 q 742 413 738 411 q 750 400 750 415 q 735 360 751 376 q 690 336 718 343 q 624 345 653 328 q 586 399 594 363 q 595 465 576 436 q 654 501 614 493 q 703 500 682 508 q 728 472 724 492 q 700 432 733 450 m 650 432 q 671 464 678 439 q 650 482 667 485 q 643 443 635 478 q 649 431 646 435 l 650 432 m 776 482 q 802 474 792 482 q 813 451 813 465 q 802 428 813 436 q 776 421 792 421 q 742 451 742 421 q 776 482 742 482 m 161 163 q 158 153 161 156 q 153 144 157 149 l 144 140 q 139 140 142 140 q 133 139 136 139 q 126 140 129 139 q 124 141 125 140 q 121 142 122 142 q 117 143 119 143 q 115 144 115 144 q 115 146 115 146 q 114 147 114 146 l 114 150 l 114 154 l 114 156 q 115 157 115 156 l 115 157 q 118 156 117 157 q 121 154 121 154 q 124 153 122 154 q 126 153 125 153 q 133 151 128 151 l 139 151 q 142 154 142 154 q 144 156 144 154 l 144 160 q 144 165 144 165 q 140 167 143 167 l 136 171 q 131 172 132 171 q 125 176 128 174 q 119 179 122 176 q 117 182 118 182 q 115 185 117 182 l 115 193 q 117 201 115 200 q 121 208 118 206 q 129 211 124 211 q 134 213 132 213 q 139 214 136 214 q 144 213 142 214 q 149 211 147 213 l 153 211 q 154 210 154 211 q 156 210 154 210 l 156 208 l 156 207 l 156 206 l 156 203 l 156 200 l 156 199 l 156 197 l 154 197 q 153 199 153 197 q 150 200 150 200 q 144 201 146 200 l 139 201 l 135 201 q 133 201 133 201 q 132 200 133 200 q 131 197 131 199 q 129 194 129 196 q 130 192 129 193 q 131 190 131 192 q 133 188 133 188 q 139 185 139 185 q 144 182 144 182 q 150 179 147 182 q 156 175 153 178 q 158 172 157 174 q 160 169 158 171 q 160 166 160 167 q 161 163 161 165 m 271 154 q 269 151 271 153 l 269 150 l 269 149 l 268 149 l 250 153 l 236 97 l 236 96 l 235 96 l 232 96 q 229 97 229 96 l 225 97 l 224 97 q 222 99 224 99 l 222 100 l 236 157 l 218 160 l 218 161 l 218 163 l 218 165 l 218 167 l 218 169 q 219 171 219 171 q 221 172 219 172 l 222 172 l 269 160 l 271 160 l 272 160 l 272 157 q 271 154 271 154 m 388 163 q 383 151 385 154 q 376 143 382 149 q 367 140 371 140 q 354 140 361 139 q 342 143 347 140 q 338 146 339 144 q 333 150 336 147 q 329 160 331 156 l 329 171 l 336 214 q 338 215 336 215 l 338 217 l 340 217 q 343 215 343 217 l 347 215 q 349 214 349 214 q 350 213 350 214 l 350 211 l 343 171 l 343 163 q 344 160 343 160 q 346 157 344 160 q 350 154 349 154 q 356 151 353 151 l 363 151 q 365 153 364 153 q 367 154 365 153 q 371 158 371 154 q 372 161 371 160 q 372 165 372 163 l 379 207 q 381 208 379 208 q 382 210 381 210 l 383 210 q 388 208 386 210 l 390 208 q 392 208 392 208 q 393 207 392 207 q 394 206 394 207 l 394 206 l 388 163 m 517 182 q 518 165 518 176 q 514 153 518 160 q 504 143 513 149 q 498 140 501 142 q 489 138 494 139 l 474 133 q 469 133 472 132 q 468 136 468 133 l 450 197 q 451 200 450 200 q 454 203 451 200 l 472 207 q 488 210 483 210 q 494 208 492 208 q 501 206 497 207 q 506 202 504 204 q 510 197 507 200 q 517 182 513 194 m 501 178 q 500 183 500 181 q 499 188 500 185 q 496 192 496 190 q 493 194 496 193 q 489 196 490 196 q 485 197 488 196 q 474 196 479 197 l 467 194 l 479 147 l 486 149 q 496 153 494 151 q 501 160 499 154 q 503 168 503 161 q 502 173 503 171 q 501 178 501 175 m 611 185 l 611 183 l 610 182 l 608 182 l 607 182 q 604 181 606 182 q 601 179 603 179 l 599 179 l 599 179 l 599 181 l 575 244 l 575 244 q 576 246 575 246 q 578 247 578 247 q 581 249 581 249 q 583 250 583 250 l 585 250 l 586 250 l 589 250 l 589 250 l 611 185 m 736 194 q 735 186 736 190 q 735 179 735 182 q 729 167 732 169 q 717 160 726 163 q 710 157 714 158 q 703 156 707 156 q 689 158 697 156 q 683 161 685 161 q 678 164 681 161 q 671 175 674 169 q 668 192 668 183 q 671 207 668 203 q 673 213 672 210 q 676 219 674 217 q 688 228 683 226 q 701 229 690 229 q 717 228 707 231 q 726 222 721 228 q 733 211 732 218 q 735 203 735 207 q 736 194 736 200 m 721 194 q 719 204 721 200 q 717 211 717 210 q 711 217 714 217 q 701 218 708 218 q 693 217 694 218 l 688 211 l 683 203 l 683 193 q 685 182 683 185 q 686 178 686 179 q 689 174 686 176 q 694 169 692 171 q 703 168 696 168 q 708 169 706 168 q 711 171 710 171 q 717 176 715 172 q 718 179 717 178 q 721 183 719 181 l 721 194 z "},"\u0000":{"ha":0,"x_min":0,"x_max":0,"o":""},"\r":{"ha":347,"x_min":0,"x_max":0,"o":""}," ":{"ha":333,"x_min":0,"x_max":0,"o":""},",":{"ha":844,"x_min":28,"x_max":826,"o":"m 115 579 q 122 560 115 565 q 131 549 131 554 q 97 535 131 535 l 65 535 q 31 549 31 535 q 40 560 31 554 q 46 579 46 565 l 46 733 q 44 747 46 743 q 36 756 42 751 q 28 767 28 764 q 36 778 28 774 q 55 784 44 782 q 76 787 65 786 q 90 788 86 788 q 118 767 118 788 q 117 752 118 760 q 115 736 115 744 l 115 631 q 118 625 115 625 q 122 628 119 625 q 142 671 150 649 q 147 692 138 683 q 178 700 157 700 q 215 678 215 700 q 174 632 215 656 q 175 625 168 628 q 201 597 192 615 l 208 583 q 224 561 218 565 q 231 549 231 554 q 222 538 231 542 q 201 535 214 535 l 174 535 q 153 540 158 535 q 143 557 147 544 q 126 592 138 571 l 118 608 l 115 608 l 115 579 m 281 804 q 243 772 264 788 q 303 764 274 746 q 314 774 308 767 q 321 790 319 781 q 325 799 321 794 q 338 790 332 801 q 335 747 346 768 q 301 710 325 725 q 235 697 268 689 q 183 738 203 706 q 172 803 164 769 q 214 857 179 836 q 260 871 238 872 q 293 850 282 869 q 297 829 300 839 q 281 804 294 819 m 233 788 q 242 825 254 804 q 218 835 229 842 q 224 797 206 826 q 227 792 225 794 q 231 786 229 789 l 233 788 m 421 606 q 431 586 422 589 q 443 576 443 581 q 411 558 444 565 l 379 553 q 343 558 346 547 q 349 572 343 567 q 351 593 353 576 l 339 661 q 335 674 338 669 q 325 682 332 678 q 314 690 314 685 q 320 703 313 697 q 338 712 328 708 q 359 718 349 715 q 374 721 369 721 q 395 720 389 724 q 404 706 401 717 q 406 686 406 700 q 407 683 406 683 q 408 686 408 682 q 416 713 411 697 q 443 733 421 729 q 479 704 472 740 q 444 663 488 669 q 431 659 438 660 q 419 656 425 658 q 413 643 410 653 l 421 606 m 589 608 q 542 619 569 610 q 569 568 538 582 q 584 565 575 565 q 600 568 593 564 q 611 569 607 574 q 611 556 618 567 q 576 531 600 536 q 525 536 553 525 q 476 581 489 550 q 476 647 463 611 q 522 697 492 683 q 589 694 553 710 q 628 665 617 683 q 632 626 640 647 q 618 610 628 615 q 589 608 608 606 m 547 638 q 581 653 572 629 q 575 679 590 674 q 549 651 561 683 q 547 644 547 649 q 544 638 546 640 l 547 638 m 746 644 q 738 679 754 675 q 725 676 731 682 q 713 663 719 669 q 699 650 707 656 q 679 647 692 644 q 663 661 668 651 q 660 682 657 671 q 744 697 671 717 q 814 626 826 674 l 794 557 q 796 536 790 543 q 800 524 801 526 q 787 515 799 517 q 757 519 775 514 q 733 530 740 524 q 722 543 725 536 q 721 549 722 547 q 717 546 717 549 q 693 540 706 542 q 667 542 681 538 q 633 596 622 553 q 735 636 647 647 q 744 642 740 635 l 746 644 m 735 607 q 732 615 736 613 l 729 615 q 706 594 713 615 q 713 572 701 574 q 729 586 725 568 l 735 607 m 129 367 q 135 354 131 360 q 149 350 140 349 q 160 358 157 353 q 168 363 164 363 q 175 353 172 364 q 163 320 178 335 q 121 303 147 306 q 80 310 96 300 q 61 342 64 321 l 51 426 q 42 435 51 432 q 31 446 31 435 q 47 463 29 461 q 71 486 63 465 q 79 501 75 496 q 93 508 83 507 q 115 490 111 513 l 115 479 q 125 472 115 472 l 131 472 q 151 461 150 475 q 135 444 154 446 l 128 443 q 121 435 121 443 l 129 367 m 351 471 q 338 397 351 435 q 301 325 325 360 q 258 278 282 296 q 211 261 235 261 q 184 269 194 261 q 174 293 174 278 q 183 319 174 308 q 207 329 192 329 q 227 325 218 329 q 249 321 236 321 q 269 332 269 321 q 257 339 269 338 l 256 339 q 215 374 225 343 l 190 453 q 178 478 183 474 q 175 494 169 486 q 206 503 181 503 l 232 503 q 260 479 264 503 q 258 472 258 478 q 264 446 258 458 l 278 407 q 287 386 285 392 q 293 381 289 381 q 303 404 303 381 q 297 448 303 431 q 290 478 290 465 q 324 506 290 506 q 351 471 351 506 m 563 396 q 524 343 551 360 q 465 336 497 326 q 440 351 449 340 q 438 353 439 353 q 433 349 435 354 l 424 317 q 424 296 421 303 q 428 282 429 288 q 393 279 425 268 l 363 289 q 332 311 328 300 q 344 319 333 315 q 356 338 351 324 l 399 478 q 397 501 403 493 q 394 514 393 511 q 411 524 396 524 q 434 522 421 524 q 458 515 447 519 q 479 499 479 510 q 485 494 479 492 q 525 496 501 503 q 563 460 553 488 q 563 396 574 432 m 463 360 q 490 393 479 356 q 498 447 500 424 q 485 474 496 471 q 467 460 471 478 l 450 404 q 449 378 447 393 q 463 360 450 364 m 700 432 q 679 422 690 426 q 654 414 668 418 q 708 388 674 379 q 724 393 715 390 q 735 404 732 396 q 742 413 738 411 q 750 400 750 415 q 735 360 751 376 q 690 336 718 343 q 624 345 653 328 q 586 399 594 363 q 595 465 576 436 q 654 501 614 493 q 703 500 682 508 q 728 472 724 492 q 700 432 733 450 m 650 432 q 671 464 678 439 q 650 482 667 485 q 643 443 635 478 q 649 431 646 435 l 650 432 m 776 482 q 802 474 792 482 q 813 451 813 465 q 802 428 813 436 q 776 421 792 421 q 742 451 742 421 q 776 482 742 482 m 161 163 q 158 153 161 156 q 153 144 157 149 l 144 140 q 139 140 142 140 q 133 139 136 139 q 126 140 129 139 q 124 141 125 140 q 121 142 122 142 q 117 143 119 143 q 115 144 115 144 q 115 146 115 146 q 114 147 114 146 l 114 150 l 114 154 l 114 156 q 115 157 115 156 l 115 157 q 118 156 117 157 q 121 154 121 154 q 124 153 122 154 q 126 153 125 153 q 133 151 128 151 l 139 151 q 142 154 142 154 q 144 156 144 154 l 144 160 q 144 165 144 165 q 140 167 143 167 l 136 171 q 131 172 132 171 q 125 176 128 174 q 119 179 122 176 q 117 182 118 182 q 115 185 117 182 l 115 193 q 117 201 115 200 q 121 208 118 206 q 129 211 124 211 q 134 213 132 213 q 139 214 136 214 q 144 213 142 214 q 149 211 147 213 l 153 211 q 154 210 154 211 q 156 210 154 210 l 156 208 l 156 207 l 156 206 l 156 203 l 156 200 l 156 199 l 156 197 l 154 197 q 153 199 153 197 q 150 200 150 200 q 144 201 146 200 l 139 201 l 135 201 q 133 201 133 201 q 132 200 133 200 q 131 197 131 199 q 129 194 129 196 q 130 192 129 193 q 131 190 131 192 q 133 188 133 188 q 139 185 139 185 q 144 182 144 182 q 150 179 147 182 q 156 175 153 178 q 158 172 157 174 q 160 169 158 171 q 160 166 160 167 q 161 163 161 165 m 271 154 q 269 151 271 153 l 269 150 l 269 149 l 268 149 l 250 153 l 236 97 l 236 96 l 235 96 l 232 96 q 229 97 229 96 l 225 97 l 224 97 q 222 99 224 99 l 222 100 l 236 157 l 218 160 l 218 161 l 218 163 l 218 165 l 218 167 l 218 169 q 219 171 219 171 q 221 172 219 172 l 222 172 l 269 160 l 271 160 l 272 160 l 272 157 q 271 154 271 154 m 388 163 q 383 151 385 154 q 376 143 382 149 q 367 140 371 140 q 354 140 361 139 q 342 143 347 140 q 338 146 339 144 q 333 150 336 147 q 329 160 331 156 l 329 171 l 336 214 q 338 215 336 215 l 338 217 l 340 217 q 343 215 343 217 l 347 215 q 349 214 349 214 q 350 213 350 214 l 350 211 l 343 171 l 343 163 q 344 160 343 160 q 346 157 344 160 q 350 154 349 154 q 356 151 353 151 l 363 151 q 365 153 364 153 q 367 154 365 153 q 371 158 371 154 q 372 161 371 160 q 372 165 372 163 l 379 207 q 381 208 379 208 q 382 210 381 210 l 383 210 q 388 208 386 210 l 390 208 q 392 208 392 208 q 393 207 392 207 q 394 206 394 207 l 394 206 l 388 163 m 517 182 q 518 165 518 176 q 514 153 518 160 q 504 143 513 149 q 498 140 501 142 q 489 138 494 139 l 474 133 q 469 133 472 132 q 468 136 468 133 l 450 197 q 451 200 450 200 q 454 203 451 200 l 472 207 q 488 210 483 210 q 494 208 492 208 q 501 206 497 207 q 506 202 504 204 q 510 197 507 200 q 517 182 513 194 m 501 178 q 500 183 500 181 q 499 188 500 185 q 496 192 496 190 q 493 194 496 193 q 489 196 490 196 q 485 197 488 196 q 474 196 479 197 l 467 194 l 479 147 l 486 149 q 496 153 494 151 q 501 160 499 154 q 503 168 503 161 q 502 173 503 171 q 501 178 501 175 m 611 185 l 611 183 l 610 182 l 608 182 l 607 182 q 604 181 606 182 q 601 179 603 179 l 599 179 l 599 179 l 599 181 l 575 244 l 575 244 q 576 246 575 246 q 578 247 578 247 q 581 249 581 249 q 583 250 583 250 l 585 250 l 586 250 l 589 250 l 589 250 l 611 185 m 736 194 q 735 186 736 190 q 735 179 735 182 q 729 167 732 169 q 717 160 726 163 q 710 157 714 158 q 703 156 707 156 q 689 158 697 156 q 683 161 685 161 q 678 164 681 161 q 671 175 674 169 q 668 192 668 183 q 671 207 668 203 q 673 213 672 210 q 676 219 674 217 q 688 228 683 226 q 701 229 690 229 q 717 228 707 231 q 726 222 721 228 q 733 211 732 218 q 735 203 735 207 q 736 194 736 200 m 721 194 q 719 204 721 200 q 717 211 717 210 q 711 217 714 217 q 701 218 708 218 q 693 217 694 218 l 688 211 l 683 203 l 683 193 q 685 182 683 185 q 686 178 686 179 q 689 174 686 176 q 694 169 692 171 q 703 168 696 168 q 708 169 706 168 q 711 171 710 171 q 717 176 715 172 q 718 179 717 178 q 721 183 719 181 l 721 194 z "},".":{"ha":264,"x_min":7,"x_max":257,"o":"m 129 250 q 221 215 185 250 q 257 129 257 181 q 246 79 257 103 q 217 38 235 56 q 175 10 199 19 q 126 0 151 0 q 42 35 78 0 q 7 128 7 69 q 41 216 7 182 q 129 250 75 250 z "},"A":{"ha":744,"x_min":10,"x_max":738,"o":"m 346 972 q 501 924 429 972 q 625 791 572 875 q 708 592 678 707 q 738 343 738 476 q 539 15 738 15 q 396 169 396 15 q 360 254 396 254 q 338 225 338 254 q 343 198 338 211 q 355 170 349 185 q 366 140 361 156 q 371 104 371 124 q 334 28 371 56 q 235 0 297 0 q 10 394 10 0 q 34 632 10 525 q 102 815 58 739 q 208 931 146 890 q 346 972 269 972 m 346 376 q 372 392 364 376 q 381 436 381 408 q 377 475 381 456 q 367 510 374 494 q 354 537 361 526 q 340 547 347 547 q 328 538 335 547 q 316 513 321 528 q 308 481 311 499 q 304 444 304 463 q 315 394 304 411 q 346 376 326 376 z "},"B":{"ha":794,"x_min":11,"x_max":790,"o":"m 585 581 q 738 506 685 568 q 790 339 790 443 q 760 195 790 260 q 673 84 729 131 q 539 12 617 38 q 367 -14 461 -14 q 205 14 272 -14 q 94 100 138 42 q 31 250 51 158 q 11 468 11 342 q 93 850 11 728 q 343 972 175 972 q 456 956 406 972 q 543 911 507 940 q 599 841 579 882 q 618 750 618 800 q 563 613 618 668 q 551 596 551 601 q 558 587 551 590 q 585 581 565 583 m 256 688 q 263 647 256 663 q 285 632 271 632 q 313 652 300 632 q 325 699 325 672 q 316 734 325 721 q 292 747 307 747 q 265 731 275 747 q 256 688 256 715 m 271 407 q 308 351 271 351 q 352 373 332 351 q 372 421 372 394 q 357 459 372 443 q 321 475 342 475 q 284 456 297 475 q 271 407 271 438 z "},"C":{"ha":725,"x_min":8,"x_max":725,"o":"m 435 0 q 262 37 340 0 q 127 139 183 74 q 40 297 71 204 q 8 499 8 389 q 38 697 8 607 q 123 851 68 788 q 254 951 178 915 q 424 986 331 986 q 546 967 490 986 q 641 915 601 949 q 703 835 681 882 q 725 732 725 789 q 674 586 725 642 q 542 531 624 531 q 494 537 514 531 q 460 550 475 543 q 435 563 446 557 q 413 569 424 569 q 390 559 399 569 q 381 532 381 549 q 413 481 381 500 q 500 463 446 463 q 590 447 549 463 q 660 401 631 431 q 705 331 689 372 q 721 242 721 290 q 701 142 721 188 q 643 66 681 97 q 553 17 606 35 q 435 0 500 0 z "},"D":{"ha":725,"x_min":14,"x_max":718,"o":"m 268 972 q 440 931 358 972 q 583 818 521 889 q 681 653 644 747 q 718 453 718 558 q 685 272 718 356 q 592 128 651 189 q 450 34 533 68 q 267 0 367 0 q 144 22 193 0 q 67 94 96 43 q 26 232 38 146 q 14 446 14 318 q 28 691 14 590 q 72 854 42 792 q 151 944 103 917 q 268 972 200 972 m 308 363 q 343 411 343 363 q 337 472 343 436 q 322 540 331 508 q 304 595 314 572 q 288 618 294 618 q 276 603 282 618 q 266 565 271 588 q 258 514 261 542 q 256 461 256 486 q 308 363 256 363 z "},"E":{"ha":635,"x_min":11,"x_max":635,"o":"m 422 400 q 578 347 522 400 q 635 204 635 294 q 565 52 635 104 q 365 0 496 0 q 97 106 183 0 q 11 428 11 213 q 354 972 11 972 q 458 958 411 972 q 537 917 504 943 q 588 853 569 890 q 606 771 606 817 q 569 667 606 706 q 468 629 533 629 q 441 631 453 629 q 421 632 429 632 q 404 619 404 632 q 439 594 404 599 q 483 572 471 592 q 494 518 494 553 q 478 460 494 482 q 410 436 463 439 q 378 431 394 435 q 363 418 363 428 q 422 400 363 400 z "},"F":{"ha":629,"x_min":11,"x_max":639,"o":"m 436 331 q 426 317 424 329 q 435 268 431 300 q 440 200 440 236 q 399 52 440 104 q 281 0 358 0 q 169 34 218 0 q 84 132 119 68 q 30 288 49 196 q 11 493 11 379 q 102 855 11 738 q 379 972 193 972 q 572 924 504 972 q 639 783 639 875 q 590 658 639 704 q 456 611 542 611 q 409 605 428 611 q 390 582 390 599 q 401 565 390 569 q 426 560 411 561 q 458 562 442 560 q 483 564 474 564 q 531 539 515 564 q 547 469 547 514 q 518 371 547 407 q 436 331 489 335 z "},"G":{"ha":714,"x_min":8,"x_max":711,"o":"m 404 -14 q 385 -3 396 -6 q 347 0 374 0 q 94 92 179 0 q 8 379 8 183 q 42 613 8 504 q 133 801 75 721 q 271 926 192 881 q 442 972 350 972 q 550 953 500 972 q 635 899 600 933 q 691 817 671 865 q 711 713 711 769 q 670 580 711 629 q 558 531 629 531 q 506 541 525 531 q 476 564 488 551 q 453 587 464 576 q 425 597 443 597 q 383 581 404 597 q 347 538 363 564 q 321 477 331 511 q 311 408 311 443 q 360 331 311 331 q 380 340 378 331 q 379 365 382 350 q 374 397 376 379 q 381 428 371 414 q 417 453 390 443 q 499 463 443 463 q 659 412 611 463 q 707 242 707 361 q 650 33 707 103 q 481 -37 593 -37 q 435 -33 453 -37 q 404 -14 417 -28 z "},"H":{"ha":824,"x_min":11,"x_max":813,"o":"m 465 197 q 467 251 465 233 q 447 269 468 269 q 417 250 424 269 q 410 197 410 231 q 369 54 410 108 q 235 0 329 0 q 133 25 175 0 q 63 106 90 50 q 24 253 36 163 q 11 475 11 344 q 23 692 11 603 q 62 838 35 782 q 132 919 89 894 q 236 944 175 944 q 308 933 276 944 q 360 896 339 922 q 393 826 382 869 q 404 721 404 783 q 410 659 404 683 q 433 635 415 635 q 465 758 465 635 q 471 851 465 808 q 492 923 476 893 q 535 969 507 953 q 610 986 564 986 q 704 958 665 986 q 767 870 743 931 q 801 713 790 810 q 813 475 813 615 q 803 253 813 343 q 772 106 793 163 q 715 25 750 50 q 631 0 681 0 q 508 53 551 0 q 465 197 465 106 z "},"I":{"ha":417,"x_min":14,"x_max":403,"o":"m 201 972 q 301 944 263 972 q 363 853 340 915 q 394 694 385 792 q 403 457 403 596 q 395 244 403 331 q 366 103 388 157 q 306 24 344 49 q 207 0 268 0 q 109 24 147 0 q 50 103 71 49 q 22 244 29 157 q 14 460 14 332 q 23 707 14 608 q 53 865 32 806 q 111 948 75 924 q 201 972 147 972 z "},"J":{"ha":653,"x_min":0,"x_max":642,"o":"m 257 357 q 274 375 274 357 q 263 424 274 392 q 238 499 251 456 q 213 594 224 542 q 201 706 201 647 q 215 816 201 767 q 255 900 229 865 q 317 954 281 935 q 396 974 353 974 q 499 939 454 974 q 576 839 544 904 q 625 680 608 774 q 642 467 642 586 q 567 112 642 224 q 333 0 493 0 q 203 19 264 0 q 97 71 142 38 q 26 149 51 104 q 0 244 0 193 q 33 336 0 303 q 119 369 65 369 q 154 367 133 369 q 196 363 175 365 q 233 359 217 361 q 257 357 250 357 z "},"K":{"ha":726,"x_min":11,"x_max":732,"o":"m 413 799 q 444 809 428 799 q 481 833 460 819 q 530 856 503 846 q 592 867 557 867 q 694 826 657 867 q 732 714 732 785 q 700 600 732 644 q 630 527 668 556 q 560 481 592 499 q 528 447 528 464 q 571 417 528 431 q 674 347 639 393 q 710 233 710 300 q 698 163 710 196 q 666 106 686 131 q 619 69 646 82 q 560 56 592 56 q 497 68 528 56 q 442 96 467 81 q 398 124 417 111 q 369 136 379 136 q 353 111 358 136 q 306 29 340 58 q 218 0 271 0 q 11 481 11 0 q 225 972 11 972 q 326 938 285 972 q 383 836 367 903 q 395 807 389 815 q 413 799 401 799 z "},"L":{"ha":722,"x_min":11,"x_max":718,"o":"m 429 451 q 431 412 426 422 q 450 401 435 401 q 460 402 454 401 q 472 404 465 403 q 550 413 513 413 q 674 376 631 413 q 718 274 718 340 q 688 168 718 218 q 605 81 657 118 q 483 22 553 43 q 336 0 414 0 q 188 29 250 0 q 87 121 126 58 q 29 281 47 183 q 11 515 11 379 q 63 860 11 749 q 224 972 115 972 q 381 872 328 972 q 433 578 433 772 q 432 503 433 539 q 429 451 431 467 z "},"M":{"ha":928,"x_min":11,"x_max":917,"o":"m 713 944 q 796 909 758 944 q 860 810 833 874 q 902 657 888 746 q 917 460 917 568 q 902 269 917 354 q 860 124 888 183 q 795 32 833 64 q 710 0 757 0 q 603 55 644 0 q 563 197 563 110 q 565 242 563 221 q 570 278 568 263 q 572 303 572 293 q 568 313 572 313 q 556 290 561 313 q 542 241 551 268 q 516 191 532 214 q 471 168 500 168 q 430 186 444 168 q 406 226 415 204 q 390 265 396 247 q 375 283 383 283 q 367 273 369 283 q 365 235 365 263 q 218 0 365 0 q 64 112 117 0 q 11 443 11 224 q 29 668 11 569 q 81 834 47 767 q 165 937 115 901 q 278 972 214 972 q 356 955 325 972 q 407 910 386 938 q 440 853 428 883 q 463 795 453 822 q 482 751 472 768 q 507 733 492 733 q 533 749 521 733 q 558 788 546 765 q 583 839 569 811 q 615 890 597 867 q 657 928 633 913 q 713 944 681 944 z "},"N":{"ha":822,"x_min":11,"x_max":811,"o":"m 631 972 q 768 864 725 972 q 811 517 811 756 q 762 142 811 258 q 610 25 713 25 q 509 58 549 25 q 444 129 469 90 q 402 201 418 168 q 374 233 386 233 q 356 165 356 233 q 345 86 356 118 q 317 35 335 54 q 274 8 299 15 q 222 0 250 0 q 61 116 111 0 q 11 479 11 232 q 56 841 11 724 q 196 958 101 958 q 279 932 243 958 q 342 866 315 906 q 389 780 369 826 q 423 694 408 733 q 449 628 438 654 q 474 601 461 601 q 483 617 481 601 q 486 672 486 632 q 519 900 486 828 q 631 972 551 972 z "},"O":{"ha":754,"x_min":8,"x_max":746,"o":"m 371 972 q 524 936 454 972 q 642 834 593 900 q 719 675 692 768 q 746 468 746 582 q 721 272 746 358 q 649 124 696 185 q 537 32 603 64 q 390 0 471 0 q 235 35 306 0 q 114 135 164 71 q 36 291 64 200 q 8 493 8 382 q 34 690 8 601 q 108 840 60 778 q 222 938 156 903 q 371 972 289 972 m 335 342 q 371 362 357 342 q 385 418 385 382 q 379 468 385 442 q 365 517 374 494 q 346 553 356 539 q 328 567 336 567 q 313 554 319 567 q 299 522 306 542 q 290 478 293 503 q 286 429 286 453 q 335 342 286 342 z "},"P":{"ha":678,"x_min":11,"x_max":675,"o":"m 419 339 q 381 333 392 339 q 371 313 371 326 q 382 279 371 296 q 406 242 393 263 q 431 195 419 221 q 442 136 442 169 q 398 37 442 74 q 267 0 354 0 q 151 26 200 0 q 72 113 103 53 q 26 272 40 174 q 11 517 11 371 q 26 746 11 656 q 74 890 40 836 q 165 965 108 943 q 304 986 221 986 q 583 899 492 986 q 675 663 675 811 q 656 534 675 593 q 603 431 638 475 q 522 363 569 388 q 419 339 475 339 m 296 700 q 264 673 278 700 q 250 614 250 646 q 274 582 250 582 q 318 602 297 582 q 339 646 339 622 q 325 683 339 665 q 296 700 311 700 z "},"Q":{"ha":754,"x_min":8,"x_max":746,"o":"m 644 169 q 705 134 686 154 q 724 82 724 114 q 708 19 724 50 q 665 -35 692 -11 q 606 -72 639 -58 q 539 -86 572 -86 q 493 -78 513 -86 q 459 -60 474 -71 q 434 -37 444 -49 q 415 -17 424 -25 q 394 -3 404 -6 q 364 1 385 0 q 101 126 193 8 q 8 460 8 243 q 35 669 8 575 q 110 831 61 764 q 228 935 160 899 q 381 972 297 972 q 524 942 457 972 q 640 854 590 911 q 717 717 689 797 q 746 536 746 636 q 710 333 746 418 q 629 207 675 249 q 616 185 614 192 q 644 169 618 178 m 322 315 q 342 324 332 315 q 361 344 353 332 q 374 372 369 357 q 379 403 379 388 q 372 441 379 419 q 355 481 365 463 q 333 513 344 500 q 313 525 322 525 q 288 496 297 525 q 279 424 279 467 q 291 345 279 375 q 322 315 303 315 z "},"R":{"ha":794,"x_min":11,"x_max":794,"o":"m 619 429 q 794 190 794 342 q 749 63 794 110 q 628 15 704 15 q 554 31 583 15 q 506 70 525 47 q 477 121 488 93 q 459 172 467 149 q 445 210 451 194 q 428 226 439 226 q 420 220 421 226 q 422 194 419 214 q 398 53 438 107 q 281 0 358 0 q 169 35 219 0 q 84 134 119 69 q 30 290 49 199 q 11 494 11 382 q 363 972 11 972 q 510 949 442 972 q 630 883 579 925 q 710 781 681 840 q 739 653 739 722 q 733 591 739 622 q 712 533 726 560 q 675 483 697 506 q 619 447 653 461 q 613 438 613 444 q 619 429 613 432 m 436 643 q 411 588 411 643 q 422 528 411 550 q 451 506 432 506 q 478 522 467 506 q 489 560 489 538 q 472 616 489 589 q 436 643 456 643 z "},"S":{"ha":665,"x_min":4,"x_max":661,"o":"m 457 531 q 613 433 565 490 q 661 289 661 376 q 635 169 661 222 q 561 78 610 115 q 443 20 513 40 q 288 0 374 0 q 76 50 149 0 q 4 193 4 100 q 46 306 4 264 q 167 358 88 347 q 228 394 228 367 q 215 419 228 408 q 172 442 203 429 q 48 531 88 478 q 8 671 8 585 q 33 796 8 740 q 104 891 58 851 q 215 952 150 931 q 363 974 281 974 q 572 917 497 974 q 646 757 646 860 q 603 638 646 679 q 482 597 561 597 q 431 601 454 597 q 393 604 408 604 q 376 601 383 604 q 368 590 368 599 q 389 563 368 578 q 457 531 410 549 z "},"T":{"ha":790,"x_min":0,"x_max":790,"o":"m 244 519 q 251 577 254 564 q 236 590 249 590 q 207 587 226 590 q 161 583 188 583 q 42 625 85 583 q 0 746 0 667 q 419 986 0 986 q 700 935 610 986 q 790 776 790 885 q 639 632 790 632 q 575 610 589 632 q 569 525 561 589 q 577 480 572 508 q 586 417 582 451 q 594 347 590 383 q 597 276 597 310 q 544 74 597 147 q 397 0 490 0 q 263 66 310 0 q 215 250 215 132 q 217 310 215 276 q 224 380 219 343 q 233 453 228 417 q 244 519 239 489 z "},"U":{"ha":832,"x_min":10,"x_max":822,"o":"m 440 579 q 445 486 440 511 q 463 461 450 461 q 490 485 478 461 q 510 553 501 508 q 524 666 519 604 q 541 782 529 728 q 578 872 553 836 q 654 908 604 908 q 777 814 732 908 q 822 533 822 719 q 803 328 822 425 q 735 159 783 232 q 606 43 688 86 q 399 0 524 0 q 203 39 279 0 q 85 144 128 78 q 26 297 42 210 q 10 479 10 383 q 28 689 10 597 q 82 844 47 781 q 164 940 117 907 q 267 972 211 972 q 399 878 358 972 q 440 579 440 785 z "},"V":{"ha":881,"x_min":8,"x_max":875,"o":"m 706 972 q 875 696 875 972 q 838 432 875 558 q 738 210 800 306 q 596 57 676 114 q 429 0 515 0 q 272 51 347 0 q 138 185 196 101 q 44 378 79 269 q 8 601 8 486 q 24 735 8 675 q 67 837 39 794 q 133 902 94 879 q 221 925 172 925 q 398 799 335 925 q 461 444 461 672 q 463 408 461 417 q 467 400 464 400 q 483 439 475 400 q 499 550 490 478 q 530 753 513 672 q 572 883 547 835 q 628 952 596 932 q 706 972 661 972 z "},"W":{"ha":958,"x_min":11,"x_max":947,"o":"m 279 0 q 11 513 11 0 q 59 854 11 736 q 199 972 107 972 q 315 892 274 972 q 360 657 357 811 q 365 590 361 610 q 379 569 369 569 q 398 595 390 569 q 410 679 406 621 q 418 747 413 719 q 432 790 424 774 q 452 814 440 807 q 482 821 464 821 q 538 792 518 821 q 565 696 557 763 q 576 644 569 658 q 592 629 582 629 q 606 646 601 629 q 613 707 610 663 q 651 887 619 832 q 747 942 682 942 q 897 826 846 942 q 947 489 947 711 q 696 0 947 0 q 507 144 561 0 q 471 193 489 193 q 447 163 454 193 q 426 99 439 132 q 372 24 407 47 q 279 0 338 0 z "},"X":{"ha":804,"x_min":0,"x_max":804,"o":"m 622 526 q 597 504 603 511 q 590 492 590 497 q 618 465 590 479 q 688 414 654 447 q 747 340 721 381 q 788 256 772 299 q 804 175 804 213 q 756 69 804 110 q 631 29 708 29 q 508 62 561 29 q 432 153 456 94 q 422 178 428 164 q 411 206 417 193 q 399 228 406 219 q 386 238 393 238 q 361 186 371 238 q 181 1 326 1 q 49 51 97 1 q 0 189 0 101 q 38 334 0 263 q 156 465 76 406 q 188 492 179 482 q 196 514 196 503 q 191 528 196 522 q 172 544 186 535 q 114 598 140 567 q 69 664 88 629 q 42 735 51 699 q 32 807 32 772 q 76 927 32 882 q 190 972 119 972 q 314 923 265 972 q 382 785 363 874 q 400 730 390 744 q 419 715 410 715 q 430 724 428 715 q 432 735 432 732 q 489 896 442 844 q 615 947 536 947 q 729 905 690 947 q 768 783 768 863 q 731 644 768 707 q 622 526 694 582 z "},"Y":{"ha":735,"x_min":0,"x_max":735,"o":"m 554 986 q 687 920 639 986 q 735 736 735 854 q 725 645 735 682 q 700 581 715 608 q 668 528 685 553 q 636 474 651 504 q 611 401 621 443 q 601 296 601 358 q 542 74 601 149 q 369 0 483 0 q 219 44 278 0 q 161 160 161 89 q 178 235 161 200 q 217 299 196 269 q 256 352 239 328 q 274 394 274 376 q 215 438 274 425 q 126 477 165 449 q 58 547 86 506 q 15 641 31 589 q 0 753 0 693 q 45 915 0 857 q 178 974 90 974 q 294 922 251 974 q 354 747 338 871 q 369 681 361 699 q 390 663 376 663 q 410 681 406 663 q 410 742 414 700 q 435 923 399 860 q 554 986 472 986 z "},"Z":{"ha":668,"x_min":0,"x_max":668,"o":"m 438 419 q 378 355 379 371 q 435 339 376 339 q 607 297 546 339 q 668 181 668 256 q 590 48 668 96 q 375 0 513 0 q 228 17 294 0 q 115 65 163 33 q 42 140 68 96 q 17 238 17 183 q 94 424 17 332 q 311 594 172 515 q 343 618 343 614 q 314 622 343 622 q 85 666 171 622 q 0 783 0 710 q 26 858 0 824 q 97 917 51 892 q 203 956 142 942 q 338 971 265 971 q 570 913 485 971 q 656 756 656 856 q 438 419 656 607 z "},"a":{"ha":683,"x_min":4,"x_max":676,"o":"m 299 543 q 290 552 299 550 q 265 554 281 554 q 205 550 239 554 q 149 546 171 546 q 58 581 94 546 q 21 669 21 617 q 40 736 21 706 q 94 788 60 767 q 176 822 128 810 q 282 833 224 833 q 447 803 374 833 q 572 716 521 772 q 649 581 622 660 q 676 403 676 501 q 651 234 676 308 q 580 108 626 160 q 466 28 533 56 q 313 0 399 0 q 186 18 243 0 q 89 69 129 36 q 26 149 49 101 q 4 254 4 196 q 22 351 4 307 q 72 431 39 396 q 152 491 106 467 q 257 525 199 515 q 290 533 281 529 q 299 543 299 538 m 388 342 q 432 358 414 342 q 450 400 450 374 q 414 431 450 431 q 358 415 383 431 q 332 379 332 399 q 348 353 332 364 q 388 342 364 342 z "},"b":{"ha":750,"x_min":3,"x_max":740,"o":"m 449 792 q 485 800 464 792 q 540 808 506 808 q 688 719 636 808 q 740 458 740 631 q 654 119 740 239 q 408 0 568 0 q 240 42 315 0 q 112 163 164 85 q 31 354 60 242 q 3 608 3 467 q 63 929 3 817 q 242 1042 124 1042 q 315 1029 282 1042 q 372 994 347 1017 q 409 939 396 971 q 422 868 422 907 q 422 844 422 857 q 423 819 421 831 q 431 799 425 807 q 449 792 436 792 m 400 533 q 412 483 400 506 q 439 460 424 460 q 461 469 450 460 q 481 491 472 478 q 497 521 490 504 q 503 551 503 538 q 490 582 503 571 q 454 593 476 593 q 415 577 429 593 q 400 533 400 561 z "},"c":{"ha":626,"x_min":7,"x_max":625,"o":"m 363 0 q 218 31 283 0 q 106 119 153 63 q 33 253 60 175 q 7 426 7 332 q 31 593 7 518 q 101 722 56 668 q 208 804 146 775 q 347 833 271 833 q 440 821 397 833 q 513 785 482 808 q 560 732 543 763 q 578 664 578 701 q 564 603 578 631 q 526 554 550 575 q 470 522 503 533 q 400 510 438 510 q 339 497 361 510 q 317 464 317 485 q 367 432 317 432 q 421 439 394 432 q 476 446 447 446 q 585 394 546 446 q 625 256 625 343 q 554 69 625 138 q 363 0 483 0 z "},"d":{"ha":728,"x_min":11,"x_max":722,"o":"m 251 800 q 290 797 274 800 q 314 801 307 794 q 313 840 321 808 q 321 988 285 933 q 442 1042 357 1042 q 559 1008 507 1042 q 647 913 611 975 q 703 762 683 850 q 722 563 722 674 q 695 327 722 432 q 617 149 668 222 q 492 38 565 76 q 328 -1 419 -1 q 94 99 176 -1 q 11 386 11 200 q 30 549 11 474 q 81 681 49 625 q 156 768 113 736 q 251 800 200 800 m 285 526 q 240 485 240 526 q 249 450 240 467 q 268 429 257 433 q 290 431 276 426 q 314 446 303 436 q 333 467 325 456 q 342 489 342 479 q 325 515 342 504 q 285 526 308 526 z "},"e":{"ha":667,"x_min":7,"x_max":663,"o":"m 538 297 q 596 268 574 297 q 618 190 618 239 q 600 113 618 147 q 549 53 582 78 q 469 14 515 28 q 367 0 424 0 q 219 29 286 0 q 106 111 153 58 q 33 239 58 164 q 7 406 7 314 q 34 578 7 500 q 110 713 61 657 q 226 801 158 769 q 375 833 293 833 q 493 813 440 833 q 583 757 546 793 q 642 670 621 721 q 663 557 663 619 q 606 395 663 457 q 438 333 550 333 q 372 338 401 333 q 326 343 343 343 q 307 331 307 343 q 334 299 307 315 q 424 282 361 282 q 493 290 471 282 q 538 297 515 297 m 329 540 q 304 521 315 540 q 293 479 293 501 q 310 458 293 458 q 343 473 328 458 q 358 504 358 488 q 349 529 358 518 q 329 540 340 540 z "},"f":{"ha":564,"x_min":11,"x_max":604,"o":"m 396 383 q 413 331 404 360 q 427 271 421 301 q 437 211 433 240 q 440 157 440 182 q 403 35 440 78 q 293 -8 365 -8 q 176 28 229 -8 q 88 131 124 64 q 31 292 51 197 q 11 504 11 386 q 105 902 11 763 q 372 1042 199 1042 q 543 986 482 1042 q 604 831 604 931 q 581 739 604 772 q 497 682 557 706 q 459 662 469 671 q 450 644 449 653 q 467 625 451 633 q 511 613 483 617 q 551 596 540 607 q 561 560 561 585 q 523 469 561 503 q 419 433 485 436 q 388 423 392 432 q 396 383 385 414 z "},"g":{"ha":743,"x_min":4,"x_max":736,"o":"m 350 833 q 514 796 442 833 q 635 689 586 758 q 710 521 685 619 q 736 299 736 422 q 633 -80 736 49 q 332 -208 531 -208 q 144 -160 211 -208 q 78 -15 78 -111 q 147 122 78 81 q 347 164 215 164 q 493 210 493 164 q 465 228 493 228 q 388 217 438 228 q 283 206 338 206 q 169 227 221 206 q 81 287 117 249 q 24 379 44 325 q 4 497 4 433 q 30 633 4 571 q 101 739 56 694 q 211 808 147 783 q 350 833 275 833 m 451 436 q 475 457 475 436 q 460 495 475 478 q 422 513 444 513 q 388 501 403 513 q 374 478 372 490 q 401 449 375 463 q 451 436 426 436 z "},"h":{"ha":765,"x_min":7,"x_max":754,"o":"m 519 799 q 695 695 636 799 q 754 400 754 592 q 701 124 754 218 q 546 31 649 31 q 493 41 514 31 q 460 78 472 51 q 441 147 447 104 q 432 256 435 190 q 420 367 428 331 q 394 403 413 403 q 386 399 390 403 q 380 382 382 394 q 378 345 378 369 q 381 281 378 321 q 382 148 386 201 q 363 61 378 94 q 319 14 347 28 q 249 0 292 0 q 139 30 185 0 q 64 122 93 60 q 21 281 35 185 q 7 511 7 378 q 63 913 7 783 q 236 1042 118 1042 q 362 990 315 1042 q 408 854 408 938 q 408 805 408 825 q 428 785 407 785 q 463 792 443 785 q 519 799 483 799 z "},"i":{"ha":439,"x_min":11,"x_max":428,"o":"m 225 0 q 139 26 178 0 q 72 101 100 53 q 27 222 43 150 q 11 382 11 293 q 67 665 11 567 q 238 764 122 764 q 382 672 336 764 q 428 400 428 581 q 413 233 428 307 q 372 107 399 158 q 307 28 344 56 q 225 0 269 0 m 210 788 q 142 799 171 788 q 92 831 113 811 q 63 875 72 850 q 53 926 53 900 q 64 984 53 956 q 98 1035 75 1013 q 156 1071 121 1057 q 236 1085 190 1085 q 349 1047 314 1085 q 385 958 385 1010 q 372 897 385 928 q 337 842 360 867 q 282 803 314 818 q 210 788 250 788 z "},"j":{"ha":447,"x_min":-118,"x_max":439,"o":"m 21 639 q 33 700 21 672 q 66 748 44 728 q 116 780 88 768 q 178 792 144 792 q 285 756 236 792 q 367 653 333 719 q 420 492 401 586 q 439 285 439 399 q 353 -83 439 42 q 103 -208 268 -208 q -58 -165 3 -208 q -118 -51 -118 -122 q -101 16 -118 -14 q -60 72 -85 46 q -6 121 -35 97 q 49 170 24 144 q 90 226 74 196 q 107 293 107 256 q 94 373 107 328 q 64 465 81 418 q 34 557 47 511 q 21 639 21 603 m 99 815 q -15 854 29 815 q -58 954 -58 893 q -7 1069 -58 1025 q 125 1113 44 1113 q 234 1078 194 1113 q 274 986 274 1044 q 260 920 274 951 q 222 866 246 889 q 167 829 199 843 q 99 815 135 815 z "},"k":{"ha":685,"x_min":8,"x_max":688,"o":"m 507 410 q 640 360 593 406 q 688 233 688 314 q 678 164 688 196 q 651 108 668 132 q 610 72 633 85 q 560 58 586 58 q 511 69 535 58 q 467 93 488 81 q 428 117 446 106 q 394 128 410 128 q 359 108 374 128 q 326 64 344 88 q 280 20 307 40 q 210 0 253 0 q 8 522 8 0 q 59 913 8 785 q 221 1042 110 1042 q 293 1024 263 1042 q 344 976 324 1007 q 374 902 364 944 q 383 808 383 860 q 394 748 383 756 q 428 765 404 740 q 556 826 482 826 q 646 788 613 826 q 679 678 679 749 q 641 553 679 606 q 515 464 603 501 q 459 426 460 440 q 507 410 458 413 z "},"l":{"ha":439,"x_min":11,"x_max":428,"o":"m 225 0 q 60 117 110 0 q 11 483 11 235 q 69 906 11 771 q 238 1042 128 1042 q 380 916 332 1042 q 428 515 428 790 q 381 126 428 251 q 225 0 333 0 z "},"m":{"ha":851,"x_min":11,"x_max":840,"o":"m 600 833 q 701 803 657 833 q 776 717 746 774 q 824 578 807 660 q 840 392 840 496 q 793 121 840 214 q 654 28 746 28 q 552 80 588 28 q 510 232 517 132 q 508 262 508 250 q 501 274 507 274 q 488 232 493 274 q 466 157 481 179 q 424 135 451 135 q 349 207 375 135 q 336 228 342 228 q 328 186 328 228 q 294 49 328 97 q 201 0 261 0 q 61 110 111 0 q 11 414 11 219 q 69 726 11 619 q 236 833 126 833 q 339 797 297 833 q 421 671 381 760 q 449 635 438 635 q 462 649 460 635 q 467 686 464 663 q 509 798 478 763 q 600 833 540 833 z "},"n":{"ha":768,"x_min":11,"x_max":761,"o":"m 372 263 q 334 64 372 128 q 215 0 296 0 q 62 99 113 0 q 11 392 11 199 q 88 728 11 622 q 328 833 164 833 q 506 799 426 833 q 642 701 586 765 q 730 548 699 638 q 761 346 761 458 q 748 213 761 274 q 710 109 735 153 q 651 42 686 65 q 571 18 615 18 q 462 76 503 18 q 414 249 421 133 q 405 317 411 293 q 389 342 399 342 q 375 318 378 342 q 372 263 372 294 z "},"o":{"ha":681,"x_min":7,"x_max":674,"o":"m 306 833 q 455 803 388 833 q 571 717 522 772 q 647 584 619 661 q 674 415 674 507 q 651 250 674 326 q 586 118 629 174 q 482 31 543 63 q 343 0 421 0 q 211 35 272 0 q 105 133 150 71 q 33 280 60 196 q 7 460 7 364 q 28 613 7 543 q 89 731 50 682 q 183 806 128 779 q 306 833 239 833 m 321 417 q 345 434 333 417 q 357 471 357 451 q 340 509 357 494 q 294 524 322 524 q 268 500 268 524 q 273 473 268 488 q 285 446 278 458 q 303 425 293 433 q 321 417 313 417 z "},"p":{"ha":718,"x_min":10,"x_max":708,"o":"m 453 36 q 397 -7 392 32 q 402 -35 399 -14 q 406 -79 406 -56 q 371 -175 406 -142 q 272 -208 336 -208 q 163 -178 211 -208 q 80 -89 114 -147 q 28 53 46 -31 q 10 242 10 136 q 38 483 10 374 q 115 669 65 592 q 236 790 165 747 q 393 833 307 833 q 522 805 464 833 q 621 724 579 776 q 685 599 663 672 q 708 436 708 525 q 690 286 708 357 q 639 161 672 215 q 558 74 606 107 q 453 36 511 40 m 442 361 q 399 331 417 361 q 381 265 381 301 q 407 231 381 231 q 458 255 435 231 q 482 311 482 279 q 471 347 482 332 q 442 361 460 361 z "},"q":{"ha":726,"x_min":7,"x_max":719,"o":"m 308 -78 q 319 9 308 -31 q 329 69 329 49 q 314 90 329 90 q 267 89 299 89 q 159 111 207 89 q 77 175 111 133 q 25 275 43 217 q 7 406 7 333 q 37 577 7 499 q 119 713 67 656 q 245 801 172 769 q 404 833 318 833 q 640 723 560 833 q 719 383 719 613 q 698 158 719 265 q 637 -31 676 50 q 542 -160 597 -112 q 419 -208 488 -208 q 338 -176 367 -208 q 308 -78 308 -144 m 357 210 q 381 239 381 210 q 364 306 381 275 q 328 336 347 336 q 297 316 313 336 q 281 276 281 296 q 305 231 281 251 q 357 210 329 210 z "},"r":{"ha":543,"x_min":7,"x_max":549,"o":"m 365 415 q 380 328 365 383 q 394 190 394 274 q 364 47 394 94 q 265 0 333 0 q 158 35 206 0 q 76 135 110 71 q 25 289 43 200 q 7 486 7 378 q 22 648 7 582 q 72 755 38 714 q 161 815 107 796 q 294 833 215 833 q 487 785 425 833 q 549 636 549 738 q 506 493 549 549 q 393 438 464 438 q 367 432 369 438 q 365 415 365 426 z "},"s":{"ha":615,"x_min":0,"x_max":611,"o":"m 389 475 q 558 403 506 450 q 611 281 611 357 q 583 171 611 222 q 503 81 554 119 q 381 22 451 43 q 225 0 310 0 q 59 35 118 0 q 0 135 0 69 q 51 244 0 196 q 194 325 101 293 q 224 335 208 329 q 240 350 240 342 q 190 381 240 363 q 53 463 101 411 q 4 588 4 515 q 28 684 4 639 q 95 763 53 729 q 194 815 138 796 q 318 833 251 833 q 423 819 375 833 q 505 778 471 804 q 558 715 539 751 q 578 633 578 678 q 545 546 578 575 q 450 517 513 517 q 392 520 424 517 q 335 524 360 524 q 296 513 296 524 q 320 494 296 504 q 389 475 344 485 z "},"t":{"ha":542,"x_min":-35,"x_max":538,"o":"m 535 681 q 510 603 535 632 q 440 569 486 574 q 395 548 407 567 q 383 485 383 529 q 399 406 383 431 q 456 369 415 381 q 519 328 500 358 q 538 238 538 299 q 480 62 538 124 q 317 0 422 0 q 116 95 186 0 q 46 367 46 190 q 49 449 46 414 q 56 522 53 483 q 54 560 58 550 q 28 581 50 571 q -20 619 -6 596 q -35 686 -35 643 q 65 817 -35 799 q 96 829 88 821 q 107 860 104 838 q 151 943 117 914 q 242 972 186 972 q 322 944 296 972 q 343 865 347 917 q 349 831 340 840 q 389 819 358 822 q 497 778 458 814 q 535 681 535 743 z "},"u":{"ha":725,"x_min":7,"x_max":714,"o":"m 399 601 q 433 776 399 719 q 540 833 467 833 q 619 809 586 833 q 674 733 653 785 q 704 601 694 682 q 714 404 714 519 q 681 97 714 194 q 578 0 649 0 q 544 6 560 0 q 517 17 529 11 q 497 29 506 24 q 481 35 488 35 q 459 28 474 35 q 424 15 444 22 q 376 2 403 8 q 321 -4 350 -4 q 195 31 253 -4 q 96 129 138 67 q 31 277 54 192 q 7 464 7 363 q 58 701 7 615 q 201 788 110 788 q 340 590 332 788 q 371 492 344 492 q 399 601 399 492 z "},"v":{"ha":754,"x_min":4,"x_max":750,"o":"m 365 563 q 401 474 383 474 q 422 501 411 474 q 446 586 432 528 q 512 770 474 707 q 617 833 550 833 q 680 813 654 833 q 722 756 706 792 q 744 670 738 719 q 750 564 750 621 q 724 335 750 439 q 650 158 697 232 q 538 42 603 83 q 396 0 472 0 q 242 46 314 0 q 118 168 171 92 q 35 344 65 244 q 4 550 4 443 q 47 750 4 679 q 164 821 89 821 q 286 755 235 821 q 365 563 338 689 z "},"w":{"ha":804,"x_min":8,"x_max":796,"o":"m 581 0 q 415 143 471 0 q 400 167 407 167 q 382 139 393 167 q 314 33 353 67 q 222 0 275 0 q 65 109 121 0 q 8 417 8 218 q 21 586 8 510 q 56 717 33 663 q 111 803 79 772 q 181 833 143 833 q 274 759 242 833 q 307 547 307 685 q 308 516 307 524 q 313 508 310 508 q 326 561 321 508 q 353 669 335 638 q 410 700 372 700 q 463 668 447 700 q 479 550 478 636 q 483 494 481 508 q 489 481 486 481 q 494 496 492 481 q 497 547 496 511 q 532 764 501 694 q 625 833 563 833 q 751 728 706 833 q 796 436 796 622 q 740 114 796 228 q 581 0 683 0 z "},"x":{"ha":764,"x_min":-3,"x_max":767,"o":"m 615 438 q 596 419 594 426 q 625 392 597 411 q 730 290 693 342 q 767 186 767 238 q 753 128 767 156 q 717 80 740 100 q 663 48 694 60 q 597 36 632 36 q 502 64 547 36 q 404 158 457 92 q 385 179 393 171 q 369 188 376 188 q 344 156 357 188 q 262 41 314 82 q 150 0 210 0 q 89 13 117 0 q 41 48 61 25 q 9 101 21 71 q -3 168 -3 132 q 37 298 -3 235 q 147 404 76 361 q 177 435 178 424 q 144 468 176 446 q 49 563 79 514 q 19 669 19 611 q 63 788 19 743 q 174 833 106 833 q 276 800 229 833 q 364 700 322 767 q 407 657 393 657 q 435 681 418 657 q 533 770 476 738 q 640 803 590 803 q 727 764 694 803 q 760 658 760 725 q 722 529 760 588 q 615 438 683 471 z "},"y":{"ha":750,"x_min":0,"x_max":740,"o":"m 374 156 q 223 187 292 156 q 105 273 154 218 q 28 404 56 328 q 0 571 0 481 q 167 794 0 794 q 267 764 232 794 q 319 690 301 733 q 344 599 338 646 q 356 517 350 551 q 375 453 363 476 q 400 429 388 429 q 415 442 410 429 q 421 479 421 456 q 412 552 421 513 q 403 642 403 592 q 442 782 403 731 q 547 833 481 833 q 690 730 640 833 q 740 435 740 626 q 715 180 740 297 q 644 -24 689 63 q 539 -160 600 -111 q 407 -208 478 -208 q 349 -199 376 -208 q 303 -174 322 -190 q 272 -137 283 -158 q 261 -90 261 -115 q 296 5 261 -46 q 390 108 331 56 q 415 131 408 124 q 421 143 421 138 q 374 156 421 156 z "},"z":{"ha":611,"x_min":7,"x_max":614,"o":"m 161 446 q 224 475 194 464 q 276 494 254 486 q 311 510 299 503 q 324 528 324 517 q 313 542 324 538 q 287 547 303 546 q 251 546 271 547 q 211 544 231 544 q 69 578 122 544 q 17 669 17 611 q 38 735 17 706 q 97 788 60 765 q 188 822 135 810 q 303 833 240 833 q 431 818 374 833 q 528 774 488 803 q 592 704 569 744 q 614 614 614 664 q 569 501 614 547 q 418 410 525 454 q 303 335 303 363 q 319 322 303 325 q 358 318 335 318 q 408 319 381 318 q 456 321 435 321 q 567 291 531 321 q 603 196 603 261 q 583 112 603 149 q 528 50 564 75 q 441 13 492 25 q 328 0 390 0 q 197 17 256 0 q 95 63 138 33 q 30 135 53 93 q 7 228 7 176 q 47 349 7 294 q 161 446 86 404 z "}}}
